<svg
  width="22"
  height="22"
  viewBox="0 0 22 22"
  fill="none"
  xmlns="http://www.w3.org/2000/svg"
>
  <path
    d="M16.275 12.8333C16.8217 12.8338 17.3458 13.0513 17.7322 13.4381C18.1186 13.8248 18.3357 14.3491 18.3357 14.8958V15.7373C18.3357 16.2626 18.1716 16.7747 17.8663 17.2022C16.4492 19.1858 14.1355 20.1676 11.0005 20.1676C7.86367 20.1676 5.55092 19.1849 4.13742 17.2013C3.8332 16.7741 3.66978 16.2627 3.66992 15.7383V14.8949C3.67016 14.3482 3.88744 13.824 4.27401 13.4374C4.66058 13.0509 5.18481 12.8336 5.7315 12.8333H16.275ZM10.9996 1.83792C11.6015 1.83792 12.1975 1.95647 12.7536 2.18681C13.3096 2.41714 13.8149 2.75475 14.2405 3.18035C14.6661 3.60595 15.0037 4.11121 15.234 4.66729C15.4644 5.22336 15.5829 5.81936 15.5829 6.42125C15.5829 7.02315 15.4644 7.61914 15.234 8.17522C15.0037 8.7313 14.6661 9.23656 14.2405 9.66216C13.8149 10.0878 13.3096 10.4254 12.7536 10.6557C12.1975 10.886 11.6015 11.0046 10.9996 11.0046C9.78401 11.0046 8.61822 10.5217 7.75868 9.66216C6.89914 8.80262 6.41625 7.63683 6.41625 6.42125C6.41625 5.20568 6.89914 4.03989 7.75868 3.18035C8.61822 2.32081 9.78401 1.83792 10.9996 1.83792Z"
    fill="#BDC50E"
  />
</svg>
