<svg
  width="24"
  height="24"
  viewBox="0 0 24 24"
  fill="none"
  xmlns="http://www.w3.org/2000/svg"
>
  <path
    d="M21.9664 12V15.0667C21.9664 15.27 21.8856 15.465 21.7419 15.6088C21.5981 15.7526 21.4031 15.8333 21.1997 15.8333C20.9964 15.8333 20.8014 15.7526 20.6576 15.6088C20.5138 15.465 20.4331 15.27 20.4331 15.0667C20.4331 15.0667 20.5251 14.3 18.8997 14.3H17.3664V18.1333C17.3664 18.3367 17.2856 18.5317 17.1419 18.6755C16.9981 18.8192 16.8031 18.9 16.5997 18.9H4.33307C4.12974 18.9 3.93474 18.8192 3.79096 18.6755C3.64718 18.5317 3.56641 18.3367 3.56641 18.1333V12C3.56641 11.7967 3.64718 11.6017 3.79096 11.4579C3.93474 11.3141 4.12974 11.2333 4.33307 11.2333H16.5997C16.8031 11.2333 16.9981 11.3141 17.1419 11.4579C17.2856 11.6017 17.3664 11.7967 17.3664 12V12.7667H18.8997C20.5251 12.7667 20.4331 12 20.4331 12C20.4331 11.7967 20.5138 11.6017 20.6576 11.4579C20.8014 11.3141 20.9964 11.2333 21.1997 11.2333C21.4031 11.2333 21.5981 11.3141 21.7419 11.4579C21.8856 11.6017 21.9664 11.7967 21.9664 12ZM6.63307 5.10001C5.81974 5.10001 5.03972 5.42311 4.46461 5.99822C3.8895 6.57333 3.56641 7.35335 3.56641 8.16668C3.56641 8.98001 3.8895 9.76003 4.46461 10.3351C5.03972 10.9103 5.81974 11.2333 6.63307 11.2333C7.4464 11.2333 8.22642 10.9103 8.80153 10.3351C9.37665 9.76003 9.69974 8.98001 9.69974 8.16668C9.69974 7.35335 9.37665 6.57333 8.80153 5.99822C8.22642 5.42311 7.4464 5.10001 6.63307 5.10001ZM6.63307 9.70001C6.22641 9.70001 5.8364 9.53847 5.54884 9.25091C5.26129 8.96336 5.09974 8.57335 5.09974 8.16668C5.09974 7.76002 5.26129 7.37001 5.54884 7.08245C5.8364 6.79489 6.22641 6.63335 6.63307 6.63335C7.03974 6.63335 7.42975 6.79489 7.7173 7.08245C8.00486 7.37001 8.16641 7.76002 8.16641 8.16668C8.16641 8.57335 8.00486 8.96336 7.7173 9.25091C7.42975 9.53847 7.03974 9.70001 6.63307 9.70001ZM13.5331 3.56668C12.5164 3.56668 11.5414 3.97055 10.8225 4.68944C10.1036 5.40833 9.69974 6.38335 9.69974 7.40001C9.69974 8.41668 10.1036 9.3917 10.8225 10.1106C11.5414 10.8295 12.5164 11.2333 13.5331 11.2333C14.5497 11.2333 15.5248 10.8295 16.2436 10.1106C16.9625 9.3917 17.3664 8.41668 17.3664 7.40001C17.3664 6.38335 16.9625 5.40833 16.2436 4.68944C15.5248 3.97055 14.5497 3.56668 13.5331 3.56668ZM13.5331 9.70001C12.9231 9.70001 12.3381 9.45769 11.9067 9.02636C11.4754 8.59503 11.2331 8.01001 11.2331 7.40001C11.2331 6.79002 11.4754 6.205 11.9067 5.77367C12.3381 5.34233 12.9231 5.10001 13.5331 5.10001C14.1431 5.10001 14.7281 5.34233 15.1594 5.77367C15.5908 6.205 15.8331 6.79002 15.8331 7.40001C15.8331 8.01001 15.5908 8.59503 15.1594 9.02636C14.7281 9.45769 14.1431 9.70001 13.5331 9.70001Z"
    fill="#BC28AA"
  />
</svg>
