<svg
  width="19"
  height="19"
  viewBox="0 0 19 19"
  fill="none"
  xmlns="http://www.w3.org/2000/svg"
>
  <path
    d="M14.2978 18.2084H15.612C16.277 18.2084 16.8232 17.6938 16.9024 17.0446L18.2087 3.99794H14.2503V0.791687H12.6907V3.99794H8.75616L8.99366 5.85044C10.3474 6.22252 11.6141 6.89544 12.3741 7.6396C13.5141 8.76377 14.2978 9.92752 14.2978 11.8275V18.2084ZM0.791992 17.4167V16.625H12.6907V17.4167C12.6907 17.8442 12.3345 18.2084 11.8753 18.2084H1.58366C1.14824 18.2084 0.791992 17.8442 0.791992 17.4167ZM12.6907 11.875C12.6907 5.54169 0.791992 5.54169 0.791992 11.875H12.6907ZM0.791992 13.4584H12.667V15.0417H0.791992V13.4584Z"
    fill="black"
  ></path>
</svg>
