<svg
  width="18"
  height="18"
  viewBox="0 0 18 18"
  fill="none"
  xmlns="http://www.w3.org/2000/svg"
>
  <path
    d="M2.76754 6.84C2.70524 6.77316 2.62975 6.71998 2.54583 6.68383C2.46192 6.64768 2.37141 6.62935 2.28004 6.63C1.97254 6.63 1.74004 6.7725 1.59004 7.065C1.44004 7.3575 1.47754 7.635 1.71754 7.8975C2.60254 8.6925 3.16504 9.255 3.40504 9.585C3.71254 10.005 3.86254 10.62 3.86254 11.415C3.86254 12.3975 4.23754 13.125 4.98754 13.6275C5.40754 13.9575 5.86504 14.205 6.37504 14.37V11.4525C6.37504 10.7475 6.12754 10.1625 5.65504 9.69M12.345 9.7275C11.88 10.1925 11.625 10.77 11.625 11.4525V14.4C12.345 14.145 12.945 13.7475 13.44 13.2225C13.9275 12.6975 14.175 12.12 14.175 11.415C14.175 10.5675 14.3175 9.96 14.6025 9.585C14.67 9.465 14.7975 9.315 15 9.1275C15.1725 8.94 15.3525 8.76 15.5325 8.595C15.705 8.4375 15.8775 8.2725 16.0425 8.1075L16.29 7.8975C16.3571 7.83378 16.4103 7.75696 16.4465 7.67181C16.4826 7.58666 16.5008 7.49499 16.5 7.4025C16.5 7.1925 16.4325 7.005 16.29 6.855C16.1475 6.705 15.975 6.63 15.75 6.63C15.525 6.63 15.375 6.6975 15.2325 6.84M9.00004 15C9.51754 15 10.02 14.9325 10.5 14.79V12.1125C10.5 11.67 10.365 11.325 10.0575 10.995C9.75004 10.665 9.39754 10.5 9.00004 10.5C8.60254 10.5 8.25004 10.65 7.96504 10.9575C7.66504 11.25 7.50004 11.595 7.50004 12.045V14.79C7.98004 14.9325 8.48254 15 9.00004 15ZM6.75004 6.375C6.75004 6.9975 6.24754 7.5 5.62504 7.5C5.00254 7.5 4.50004 6.9975 4.50004 6.375C4.50004 5.7525 5.00254 5.25 5.62504 5.25C6.24754 5.25 6.75004 5.7525 6.75004 6.375ZM13.5 6.375C13.5 6.9975 12.9975 7.5 12.375 7.5C11.7525 7.5 11.25 6.9975 11.25 6.375C11.25 5.7525 11.7525 5.25 12.375 5.25C12.9975 5.25 13.5 5.7525 13.5 6.375ZM10.125 4.125C10.125 4.7475 9.62254 5.25 9.00004 5.25C8.37754 5.25 7.87504 4.7475 7.87504 4.125C7.87504 3.5025 8.37754 3 9.00004 3C9.62254 3 10.125 3.5025 10.125 4.125ZM10.125 8.25C10.125 8.8725 9.62254 9.375 9.00004 9.375C8.37754 9.375 7.87504 8.8725 7.87504 8.25C7.87504 7.6275 8.37754 7.125 9.00004 7.125C9.62254 7.125 10.125 7.6275 10.125 8.25Z"
    fill="black"
  ></path>
</svg>
