<svg width="1920" height="783" viewBox="0 0 1920 783" fill="none" xmlns="http://www.w3.org/2000/svg">
<path d="M-342.763 264.212C-342.2 262.868 -342.2 262.868 -340.955 261.332C-339.033 259.005 -339.033 259.005 -340.572 256.486C-340.757 252.735 -340.757 252.735 -339.399 251.247C-338.074 249.458 -338.103 247.684 -337.997 245.779C-337.971 245.355 -337.946 244.931 -337.919 244.494C-337.834 243.064 -337.761 241.634 -337.688 240.205C-337.63 239.172 -337.57 238.14 -337.51 237.108C-337.346 234.266 -337.193 231.423 -337.042 228.58C-336.877 225.517 -336.702 222.454 -336.528 219.391C-336.228 214.082 -335.935 208.774 -335.646 203.464C-335.228 195.788 -334.801 188.112 -334.371 180.437C-333.674 167.984 -332.985 155.531 -332.301 143.078C-331.636 130.979 -330.968 118.881 -330.294 106.782C-330.253 106.037 -330.211 105.291 -330.168 104.523C-329.96 100.784 -329.752 97.0442 -329.544 93.3046C-327.815 62.2693 -326.1 31.2334 -324.392 0.19703C-316.305 0.652188 -308.217 1.10735 -299.885 1.5763C-299.918 2.17213 -299.952 2.76792 -299.986 3.38182C-297.205 4.57078 -294.334 5.73668 -291.403 6.88366C-290.598 7.37726 -289.793 7.87089 -288.963 8.37946C-285.1 10.122 -281.578 10.3285 -275.818 10.7796C-274.652 10.646 -273.485 10.5124 -272.283 10.3748C-267.117 10.7042 -262.018 11.067 -256.87 11.4687C-254.751 11.6276 -254.751 11.6276 -252.59 11.7897C-245.575 12.3273 -238.956 12.9591 -232.089 13.8444C-228.838 13.9901 -228.838 13.9901 -225.521 14.1386C-213.633 14.7534 -203.542 16.9047 -193.781 19.6229C-192.626 19.688 -191.471 19.753 -190.28 19.82C-190.303 20.2172 -190.325 20.6144 -190.348 21.0237C-189.193 21.0887 -188.037 21.1537 -186.847 21.2207C-184.267 22.4225 -184.267 22.4225 -181.512 23.936C-180.594 24.4359 -179.676 24.9359 -178.73 25.451C-177.683 26.0329 -177.683 26.0329 -176.615 26.6266C-174.551 26.6431 -172.488 26.6596 -170.362 26.6767C-161.665 26.7947 -153.449 26.9649 -145.106 28.4C-139.231 28.6431 -133.405 28.8186 -127.543 28.9757C-120.769 29.1788 -114.887 29.4959 -108.345 30.4689C-108.323 30.0716 -108.3 29.6744 -108.277 29.2652C-106.533 29.1641 -104.789 29.063 -102.992 28.9589C-102.425 29.19 -101.859 29.4211 -101.275 29.6592C-97.2589 29.9287 -93.2663 30.1078 -89.2453 30.2986C-85.5208 30.5459 -85.5208 30.5459 -82.0536 31.3448C-81.5153 32.1801 -80.9769 33.0154 -80.4386 33.8507C-79.2944 34.1144 -78.1503 34.378 -76.9714 34.6496C-76.9938 35.0468 -77.0161 35.444 -77.0392 35.8533C-66.6914 37.3322 -66.6915 37.3323 -56.1347 38.8411C-56.1123 38.4439 -56.09 38.0466 -56.067 37.6374C-48.5781 37.3581 -42.5911 37.9359 -35.0609 38.8196C-34.4497 38.2563 -33.8385 37.693 -33.2087 37.1126C-31.4757 37.2101 -29.7427 37.3076 -27.9572 37.4081C-27.9796 37.8053 -28.0019 38.2026 -28.0249 38.6118C-24.5589 38.8069 -21.0929 39.002 -17.5219 39.2029C-17.5443 39.6002 -17.5666 39.9974 -17.5897 40.4066C-16.4343 40.4717 -15.2789 40.5367 -14.0886 40.6037C-14.0662 40.2065 -14.0439 39.8092 -14.0209 39.4C-0.0647026 38.9032 13.4179 39.4575 27.7542 40.1285C31.1938 40.2795 31.1938 40.2795 34.7029 40.4335C51.7183 41.2074 51.7183 41.2074 59.5682 42.3341C63.6037 42.6177 67.6455 42.8676 71.6874 43.0963C72.8529 43.1625 74.0183 43.2287 75.2191 43.2969C77.6806 43.4358 80.1421 43.5732 82.6037 43.7093C86.3377 43.9162 90.0709 44.1295 93.8045 44.3435C96.2058 44.4782 98.6071 44.6126 101.008 44.7465C103.173 44.8677 105.338 44.9888 107.568 45.1137C113.925 45.3922 119.875 45.5845 126.121 45.476C127.31 44.9452 128.499 44.4143 129.724 43.8675C132.642 44.0052 135.561 44.172 138.477 44.36C143.765 44.0348 146.083 43.3949 150.121 42.223C154.468 41.0338 154.468 41.0338 159.72 41.3293C159.38 40.9366 159.04 40.5439 158.689 40.1393C158.496 39.705 158.303 39.2708 158.105 38.8234C162.557 37.5676 164.615 37.7653 170.666 37.9455C173.06 38.0125 173.06 38.0125 175.501 38.0808C176.726 38.1202 177.951 38.1596 179.213 38.2001C179.179 38.7959 179.145 39.3918 179.111 40.0056C180.844 40.1032 182.577 40.2007 184.362 40.3012C184.34 40.6984 184.318 41.0956 184.295 41.5049C186.169 41.6602 188.044 41.8155 189.975 41.9755C197.341 42.9001 198.44 43.5266 203.381 45.5979C207.428 46.2444 211.49 46.8763 215.567 47.4912C217.319 48.1812 219.034 48.8826 220.717 49.5923C225.108 50.8569 229.532 51.9337 234.585 52.7878C239.479 52.6438 239.479 52.6438 243.405 52.0767C245.127 52.3729 246.849 52.669 248.623 52.9741C248.59 53.57 248.556 54.1658 248.522 54.7797C250.443 54.7508 252.364 54.722 254.343 54.6923C256.477 54.7501 258.611 54.8079 260.809 54.8675C263.607 55.8551 263.607 55.8551 265.959 56.9686C271.237 57.8251 275.547 58.1069 281.135 58.3887C286.931 58.7527 286.931 58.7527 290.364 60.1534C294.851 60.5907 299.183 60.9581 303.691 61.2808C304.926 61.3736 306.161 61.4665 307.434 61.5622C310.484 61.7908 313.536 62.0126 316.588 62.233C316.566 62.6303 316.543 63.0275 316.52 63.4367C325.208 63.5272 333.895 63.6176 342.846 63.7108C342.857 63.5122 342.868 63.3136 342.88 63.109C344.503 63.2252 346.126 63.3415 347.799 63.4613C355.289 63.8933 362.352 63.7602 369.703 63.6729C373.949 63.678 377.635 63.8295 381.894 64.1349C391.607 64.6258 397.938 63.8421 406.135 62.4427C407.868 62.5402 409.601 62.6378 411.387 62.7383C411.409 62.3411 411.431 61.9438 411.454 61.5346C413.765 61.6646 416.076 61.7947 418.456 61.9287C418.49 61.3328 418.523 60.737 418.558 60.1231C434.921 58.3775 448.011 57.9288 466.025 59.172C466.003 59.5692 465.98 59.9665 465.957 60.3757C470.294 61.0346 473.589 61.409 478.177 61.6672C480.512 61.9835 482.838 62.3126 485.145 62.6631C485.123 63.0603 485.1 63.4576 485.077 63.8668C495.32 64.569 503.337 64.8878 513.153 64.2394C516.858 64.7121 516.858 64.7121 520.121 65.2354C521.088 65.1964 522.054 65.1574 523.05 65.1172C530.757 64.949 538.721 65.7062 546.544 66.2154C552.702 66.4753 557.809 66.3832 563.744 66.1573C570.722 66.0314 577.703 66.4911 584.781 66.9122C586.275 66.9917 587.77 67.0711 589.309 67.1529C591.448 67.2756 591.448 67.2756 593.63 67.4008C594.916 67.4745 596.202 67.5483 597.527 67.6243C600.746 67.9617 600.746 67.9617 604.18 69.3624C610.447 69.8158 610.447 69.8158 616.433 70.0521C617.544 70.9115 618.654 71.771 619.799 72.6565C617.477 72.7251 615.155 72.7936 612.763 72.8643C613.839 72.9179 614.916 72.9715 616.026 73.0267C618.148 73.138 618.148 73.138 620.314 73.2515C621.716 73.3234 623.117 73.3953 624.561 73.4693C628.517 73.7509 628.517 73.7509 633.735 74.6484C636.952 74.7927 640.168 74.8938 643.375 74.9645C645.057 75.0047 646.739 75.0449 648.472 75.0863C653.212 75.1813 653.212 75.1813 658.31 74.8239C657.755 74.3942 657.199 73.9645 656.627 73.5217C657.794 73.3881 658.96 73.2545 660.162 73.1169C660.773 72.5536 661.384 71.9902 662.014 71.4099C669.016 71.8039 676.018 72.198 683.02 72.5921C685.471 72.6542 687.92 72.7033 690.365 72.7413C691.727 72.7635 693.088 72.7856 694.491 72.8084C696.628 72.8423 696.628 72.8423 698.809 72.8769C701.769 72.9296 704.729 72.983 707.69 73.0371C709.969 73.0782 712.249 73.1194 714.597 73.1617C714.608 72.9631 714.619 72.7645 714.631 72.5599C718.097 72.755 721.563 72.95 725.134 73.151C725.156 72.7538 725.179 72.3566 725.202 71.9473C727.384 72.0911 727.384 72.0911 729.61 72.2378C731.512 72.3557 733.413 72.4737 735.372 72.5952C737.26 72.7154 739.148 72.8357 741.093 72.9596C746.54 73.2872 746.54 73.2872 751.527 72.2214C755.612 72.4036 759.702 72.6284 763.781 72.911C763.169 73.4743 762.558 74.0377 761.929 74.618C763.16 74.6158 764.392 74.6135 765.661 74.6111C780.928 74.7568 780.928 74.7568 788.045 76.6539C795.602 78.6637 802.381 78.8609 811.119 79.2426C817.109 79.5258 822.439 80.0999 828.312 80.7692C830.623 80.8992 832.934 81.0293 835.314 81.1632C835.892 81.1958 836.47 81.2283 837.065 81.2618C840.562 81.4391 844.06 81.6165 847.558 81.7933C853.129 82.2004 855.853 82.7702 859.72 84.3481C861.486 83.8498 863.253 83.3515 865.073 82.8381C866.795 83.1342 868.517 83.4303 870.291 83.7355C870.268 84.1327 870.246 84.5299 870.223 84.9392C876.504 85.6475 882.284 86.2237 888.683 86.5064C894.696 86.9203 894.696 86.9203 899.788 88.1125C905.094 89.5026 905.094 89.5025 911.778 89.5797C920.02 89.9138 924.429 91.4715 930.78 93.4627C936.372 95.1088 942.134 96.0663 948.556 97.1966C950.266 97.6913 951.977 98.1861 953.739 98.6958C953.717 99.093 953.695 99.4903 953.672 99.8995C956.766 100.175 959.86 100.45 962.954 100.724C964.677 100.877 966.4 101.03 968.176 101.188C972.974 101.614 972.974 101.614 978.145 101.881C983.985 102.453 989.813 103.044 995.64 103.644C1002.08 104.296 1008.33 104.857 1014.84 105.153C1014.8 105.749 1014.77 106.345 1014.74 106.959C1015.47 106.708 1016.21 106.457 1016.97 106.198C1020.68 105.306 1022.35 105.329 1027.13 105.536C1029.12 105.616 1029.12 105.616 1031.15 105.697C1032.53 105.761 1033.9 105.825 1035.32 105.891C1036.72 105.949 1038.11 106.007 1039.55 106.067C1043 106.211 1046.44 106.365 1049.88 106.522C1049.86 106.919 1049.84 107.316 1049.81 107.725C1050.87 107.821 1051.92 107.917 1053.01 108.016C1054.4 108.145 1055.8 108.274 1057.24 108.407C1058.62 108.534 1060 108.661 1061.42 108.791C1065.23 109.182 1068.81 109.652 1072.5 110.21C1072.48 110.607 1072.46 111.004 1072.44 111.414C1074.76 111.345 1077.08 111.277 1079.47 111.206C1079.45 111.603 1079.43 112 1079.4 112.41C1087.45 112.976 1087.45 112.976 1095.29 112.889C1098.69 112.891 1098.69 112.891 1103.67 114.115C1108.99 115.5 1108.99 115.5 1114.81 115.157C1117.63 114.878 1120.43 114.588 1123.2 114.271C1130.76 114.424 1129.9 124.592 1137.49 124.89C1140.86 125.02 1134.25 122.278 1137.63 122.394C1139.62 122.478 1113.78 160.242 1145.08 129.826C1146.88 129.897 1120.29 163.722 1148.31 128.364C1153.03 128.945 1150.57 145.934 1154.24 147.37C1158.18 149.82 1174.36 138.444 1174.14 140.982C1169.68 154.423 1174.12 141.46 1174.14 140.982C1174.08 142.58 1179.52 129.294 1179.42 130.889C1179.37 132.035 1179.32 133.18 1179.28 134.326C1179.15 137.436 1178.98 140.544 1178.81 143.651C1178.63 146.899 1178.49 150.149 1178.35 153.399C1178.07 159.552 1177.76 165.703 1177.44 171.854C1177.07 178.856 1176.75 185.861 1176.42 192.866C1175.76 207.275 1175.04 221.681 1174.29 236.086C1174.87 236.119 1175.45 236.151 1176.04 236.185C1173.92 273.92 1171.8 311.656 1169.61 350.536C1163.02 351.29 1161.06 351.413 1154.24 351.029C1151.73 350.891 1151.73 350.891 1149.16 350.751C1147.32 350.645 1145.48 350.538 1143.59 350.428C1141.62 350.319 1139.66 350.21 1137.64 350.098C1131 349.727 1124.36 349.348 1117.72 348.969C1112.93 348.7 1108.14 348.432 1103.35 348.164C1091.52 347.501 1079.69 346.832 1067.86 346.161C1053.67 345.356 1039.49 344.558 1025.3 343.761C997.421 342.192 969.539 340.617 941.658 339.038C917.086 337.647 892.515 336.259 867.943 334.872C694.325 325.078 520.713 315.197 172.321 295.238C51.2188 288.284 -69.8838 281.346 -190.993 274.511C-201.319 273.928 -211.645 273.343 -221.971 272.758C-234.351 272.057 -246.731 271.358 -259.111 270.662C-265.399 270.308 -271.687 269.953 -277.975 269.596C-284.769 269.21 -291.563 268.829 -298.357 268.449C-300.354 268.335 -302.352 268.22 -304.411 268.103C-306.214 268.003 -308.018 267.902 -309.876 267.799C-312.222 267.667 -312.222 267.667 -314.615 267.532C-318.446 267.308 -318.446 267.308 -321.892 267.801C-323.036 267.538 -324.181 267.274 -325.359 267.002C-325.393 267.598 -325.426 268.194 -325.461 268.808C-327.205 268.909 -328.949 269.01 -330.746 269.114C-334.752 267.48 -338.757 265.846 -342.763 264.212Z" fill="#474747"/>
<path d="M773.116 331.046C773.536 329.938 773.536 329.938 774.607 328.613C776.263 326.601 776.263 326.601 774.511 324.774C773.965 321.849 773.965 321.849 775.15 320.55C776.274 319.018 776.074 317.629 775.992 316.125C775.976 315.789 775.96 315.454 775.944 315.108C775.888 313.979 775.82 312.85 775.752 311.721C775.71 310.906 775.668 310.09 775.627 309.274C775.511 307.029 775.384 304.784 775.256 302.539C775.12 300.12 774.994 297.7 774.866 295.28C774.644 291.086 774.415 286.893 774.182 282.699C773.845 276.636 773.518 270.573 773.193 264.51C772.665 254.673 772.13 244.836 771.589 235C771.065 225.443 770.544 215.887 770.027 206.33C769.995 205.741 769.964 205.152 769.931 204.545C769.771 201.591 769.612 198.637 769.452 195.683C768.129 171.168 766.793 146.652 765.449 122.138C773.414 121.714 781.379 121.289 789.586 120.852C789.611 121.323 789.636 121.794 789.662 122.279C792.502 122.943 795.426 123.58 798.408 124.197C799.245 124.506 800.082 124.816 800.944 125.135C804.896 126.129 808.367 125.95 814.051 125.748C815.181 125.531 816.31 125.313 817.474 125.089C822.566 124.848 827.595 124.64 832.677 124.458C834.767 124.378 834.767 124.378 836.899 124.297C843.822 124.041 850.366 123.897 857.178 123.928C860.376 123.728 860.376 123.728 863.64 123.525C875.342 122.859 885.435 123.572 895.259 124.761C896.397 124.701 897.534 124.64 898.707 124.578C898.723 124.891 898.74 125.205 898.757 125.529C899.895 125.468 901.033 125.407 902.206 125.345C904.849 126.039 904.849 126.039 907.694 126.96C908.642 127.263 909.59 127.567 910.566 127.88C911.648 128.235 911.648 128.235 912.752 128.598C914.775 128.411 916.798 128.225 918.882 128.033C927.411 127.285 935.474 126.625 943.785 126.945C949.562 126.569 955.286 126.143 961.042 125.7C967.696 125.205 973.488 124.886 979.99 125.017C979.973 124.703 979.957 124.39 979.939 124.066C981.638 123.819 983.336 123.571 985.086 123.316C985.664 123.442 986.241 123.569 986.836 123.699C990.795 123.523 994.723 123.277 998.68 123.039C1002.35 122.873 1002.35 122.873 1005.83 123.165C1006.43 123.768 1007.04 124.371 1007.65 124.975C1008.8 125.071 1009.94 125.167 1011.12 125.267C1011.14 125.58 1011.16 125.894 1011.17 126.218C1021.45 126.378 1021.45 126.378 1031.94 126.542C1031.92 126.228 1031.91 125.915 1031.89 125.591C1039.2 124.649 1045.12 124.524 1052.58 124.49C1053.12 123.989 1053.66 123.488 1054.23 122.971C1055.93 122.881 1057.64 122.79 1059.4 122.696C1059.41 123.01 1059.43 123.324 1059.45 123.647C1062.86 123.465 1066.28 123.283 1069.79 123.096C1069.81 123.41 1069.83 123.724 1069.84 124.047C1070.98 123.986 1072.12 123.926 1073.29 123.863C1073.27 123.55 1073.26 123.236 1073.24 122.912C1086.86 121.175 1100.12 120.307 1114.23 119.449C1117.61 119.235 1117.61 119.235 1121.06 119.017C1137.8 117.98 1137.8 117.98 1145.6 118.106C1149.58 117.938 1153.56 117.744 1157.54 117.533C1158.69 117.472 1159.84 117.412 1161.02 117.349C1163.45 117.22 1165.87 117.09 1168.29 116.959C1171.97 116.761 1175.65 116.568 1179.33 116.375C1181.69 116.249 1184.06 116.122 1186.42 115.995C1188.55 115.881 1190.68 115.767 1192.88 115.65C1199.13 115.254 1204.98 114.83 1211.09 114.142C1212.2 113.61 1213.31 113.079 1214.46 112.532C1217.33 112.358 1220.21 112.207 1223.08 112.073C1228.23 111.307 1230.44 110.581 1234.28 109.271C1238.42 107.918 1238.42 107.918 1243.59 107.643C1243.22 107.367 1242.85 107.092 1242.47 106.809C1242.24 106.486 1242 106.164 1241.77 105.833C1246 104.417 1248.04 104.374 1253.98 103.93C1256.33 103.752 1256.33 103.752 1258.73 103.569C1259.94 103.482 1261.14 103.395 1262.38 103.305C1262.4 103.775 1262.43 104.246 1262.45 104.731C1264.16 104.64 1265.87 104.549 1267.63 104.455C1267.64 104.769 1267.66 105.083 1267.68 105.406C1269.53 105.347 1271.38 105.288 1273.29 105.227C1280.59 105.241 1281.73 105.626 1286.77 106.774C1290.8 106.89 1294.84 106.993 1298.89 107.082C1300.67 107.454 1302.42 107.839 1304.14 108.233C1308.56 108.801 1313 109.218 1318.03 109.4C1322.81 108.815 1322.81 108.815 1326.6 107.99C1328.31 108.056 1330.03 108.122 1331.8 108.19C1331.82 108.661 1331.85 109.132 1331.87 109.617C1333.75 109.409 1335.63 109.2 1337.57 108.986C1339.66 108.825 1341.76 108.664 1343.92 108.499C1346.75 109.003 1346.75 109.003 1349.16 109.65C1354.42 109.812 1358.66 109.617 1364.16 109.298C1369.88 109.023 1369.88 109.023 1373.38 109.791C1377.81 109.7 1382.09 109.57 1386.54 109.388C1387.76 109.341 1388.98 109.295 1390.23 109.247C1393.24 109.132 1396.25 109.011 1399.26 108.889C1399.28 109.203 1399.3 109.517 1399.31 109.84C1407.83 109.072 1416.35 108.304 1425.12 107.512C1425.11 107.355 1425.11 107.198 1425.1 107.037C1426.7 106.971 1428.3 106.905 1429.95 106.838C1437.33 106.453 1444.23 105.666 1451.42 104.888C1455.58 104.482 1459.21 104.244 1463.41 104.073C1472.97 103.519 1479.09 102.293 1486.99 100.403C1488.69 100.312 1490.4 100.222 1492.16 100.128C1492.14 99.8141 1492.12 99.5003 1492.11 99.177C1494.38 99.0558 1496.66 98.9346 1499 98.8097C1498.98 98.339 1498.95 97.8683 1498.93 97.3834C1514.78 94.4332 1527.56 92.8167 1545.32 92.0518C1545.34 92.3656 1545.36 92.6794 1545.38 93.0027C1549.69 93.1008 1552.95 93.0762 1557.47 92.8355C1559.79 92.8581 1562.1 92.8916 1564.39 92.9438C1564.41 93.2576 1564.42 93.5714 1564.44 93.8947C1574.54 93.4562 1582.42 92.9317 1591.98 91.4749C1595.65 91.4878 1595.65 91.4878 1598.9 91.5831C1599.84 91.4591 1600.78 91.3352 1601.75 91.2074C1609.29 90.331 1617.16 90.1558 1624.87 89.7995C1630.93 89.4085 1635.92 88.843 1641.71 88.0924C1648.53 87.3195 1655.41 87.0058 1662.39 86.6525C1663.86 86.5704 1665.33 86.4884 1666.85 86.4039C1668.95 86.2936 1668.95 86.2936 1671.1 86.181C1672.37 86.1146 1673.64 86.0483 1674.94 85.9799C1678.13 85.9336 1678.13 85.9336 1681.63 86.7009C1687.81 86.4512 1687.81 86.4512 1693.69 86.0582C1694.87 86.6252 1696.04 87.1923 1697.24 87.7764C1694.98 88.0545 1692.71 88.3326 1690.37 88.6191C1691.43 88.5572 1692.49 88.4952 1693.58 88.4314C1695.67 88.3136 1695.67 88.3136 1697.81 88.1935C1699.19 88.1145 1700.57 88.0355 1701.99 87.9541C1705.89 87.7929 1705.89 87.7929 1711.09 87.9929C1714.25 87.7954 1717.41 87.564 1720.56 87.3097C1722.21 87.1787 1723.86 87.0478 1725.56 86.9128C1730.21 86.5295 1730.21 86.5295 1735.17 85.7567C1734.59 85.4732 1734 85.1897 1733.4 84.8976C1734.53 84.6801 1735.66 84.4626 1736.82 84.2385C1737.36 83.7375 1737.91 83.2365 1738.47 82.7203C1745.36 82.3531 1752.26 81.9859 1759.16 81.6187C1761.56 81.4306 1763.97 81.2326 1766.37 81.0262C1767.7 80.9121 1769.04 80.7979 1770.41 80.6803C1772.51 80.5004 1772.51 80.5004 1774.65 80.3169C1777.55 80.0723 1780.46 79.8282 1783.36 79.5847C1785.6 79.3968 1787.83 79.2089 1790.14 79.0152C1790.13 78.8583 1790.12 78.7014 1790.11 78.5398C1793.53 78.358 1796.94 78.1762 1800.46 77.9889C1800.44 77.6751 1800.42 77.3613 1800.41 77.038C1802.56 76.9401 1802.56 76.9401 1804.75 76.8401C1806.63 76.7489 1808.5 76.6578 1810.43 76.5638C1812.29 76.4758 1814.15 76.3878 1816.07 76.2971C1821.44 76.028 1821.44 76.028 1826.22 74.71C1830.24 74.4583 1834.26 74.2396 1838.29 74.0673C1837.74 74.5683 1837.2 75.0693 1836.64 75.5855C1837.84 75.4648 1839.05 75.344 1840.29 75.2196C1855.26 73.859 1855.26 73.859 1862.41 74.6599C1870.01 75.5067 1876.67 75.0065 1885.26 74.4619C1891.16 74.1054 1896.44 74.041 1902.25 73.9987C1904.53 73.8775 1906.8 73.7563 1909.15 73.6314C1909.72 73.6011 1910.29 73.5708 1910.87 73.5396C1914.32 73.3409 1917.76 73.1422 1921.2 72.9431C1926.7 72.7243 1929.42 72.9082 1933.36 73.7725C1935.04 73.2109 1936.72 72.6493 1938.46 72.0707C1940.17 72.1367 1941.89 72.2027 1943.65 72.2707C1943.67 72.5846 1943.69 72.8984 1943.71 73.2217C1949.93 73.1706 1955.64 73.0643 1961.94 72.668C1967.87 72.4118 1967.87 72.4118 1972.97 72.8553C1978.3 73.4333 1978.3 73.4333 1984.86 72.8482C1992.96 72.314 1997.43 73.1103 2003.84 74.059C2009.48 74.8103 2015.22 75.0048 2021.62 75.2713C2023.34 75.4942 2025.06 75.7171 2026.84 75.9468C2026.86 76.2606 2026.87 76.5744 2026.89 76.8977C2029.95 76.8151 2033 76.7316 2036.06 76.6477C2037.76 76.6013 2039.47 76.5549 2041.22 76.507C2045.96 76.3781 2045.96 76.3781 2051.05 76.0878C2056.83 75.9731 2062.59 75.8734 2068.36 75.7809C2074.73 75.6709 2080.9 75.5076 2087.31 75.1108C2087.33 75.5815 2087.36 76.0522 2087.38 76.5371C2088.08 76.269 2088.78 76.0008 2089.5 75.7245C2093.05 74.6661 2094.69 74.5228 2099.38 74.2238C2101.34 74.0942 2101.34 74.0942 2103.34 73.962C2104.69 73.8791 2106.04 73.7963 2107.44 73.7109C2108.81 73.6215 2110.19 73.532 2111.6 73.4399C2114.99 73.2203 2118.38 73.009 2121.76 72.7992C2121.78 73.113 2121.8 73.4268 2121.81 73.7501C2122.86 73.7235 2123.9 73.6969 2124.97 73.6695C2126.35 73.636 2127.73 73.6025 2129.15 73.5679C2130.51 73.5341 2131.88 73.5003 2133.28 73.4655C2137.05 73.4042 2140.6 73.4269 2144.28 73.5075C2144.29 73.8213 2144.31 74.1351 2144.33 74.4584C2146.59 74.1803 2148.86 73.9023 2151.2 73.6157C2151.22 73.9295 2151.23 74.2434 2151.25 74.5667C2159.18 74.2341 2159.18 74.2341 2166.86 73.4078C2170.19 73.0813 2170.19 73.0813 2175.18 73.5603C2180.53 74.1335 2180.53 74.1335 2186.19 73.3019C2188.92 72.8108 2191.64 72.3124 2194.32 71.796C2201.75 71.1854 2201.89 79.2463 2209.35 78.7469C2212.67 78.5232 2205.93 77.0102 2209.25 76.7751C2211.2 76.6492 2189.57 108.773 2217.27 81.886C2219.03 81.7686 2196.28 110.875 2220.29 80.4271C2224.97 80.4275 2224.21 93.9934 2227.95 94.7658C2232.04 96.3076 2246.78 85.8195 2246.81 87.8321C2243.75 98.8074 2246.84 88.2082 2246.81 87.8321C2246.91 89.0911 2250.95 78.1417 2251 79.4033C2251.06 80.3069 2251.13 81.2104 2251.2 82.1137C2251.38 84.5658 2251.51 87.0201 2251.64 89.4749C2251.78 92.0401 2251.97 94.6032 2252.14 97.1666C2252.47 102.021 2252.76 106.877 2253.05 111.734C2253.37 117.263 2253.73 122.79 2254.09 128.317C2254.84 139.686 2255.54 151.058 2256.21 162.431C2256.77 162.401 2257.34 162.371 2257.93 162.339C2259.52 192.15 2261.1 221.961 2262.74 252.676C2256.36 253.904 2254.45 254.19 2247.73 254.547C2245.26 254.682 2245.26 254.682 2242.74 254.82C2240.92 254.914 2239.11 255.008 2237.25 255.105C2235.31 255.209 2233.38 255.313 2231.38 255.421C2224.84 255.772 2218.3 256.116 2211.76 256.46C2207.05 256.711 2202.33 256.964 2197.61 257.216C2185.96 257.839 2174.31 258.457 2162.66 259.073C2148.69 259.812 2134.72 260.556 2120.75 261.3C2093.29 262.763 2065.83 264.221 2038.37 265.676C2014.16 266.958 1989.96 268.242 1965.76 269.528C1794.77 278.616 1623.77 287.635 1280.61 305.63C1161.33 311.873 1042.04 318.129 922.762 324.465C912.592 325.005 902.422 325.544 892.251 326.083C880.058 326.729 867.866 327.376 855.673 328.026C849.48 328.356 843.287 328.685 837.093 329.012C830.402 329.366 823.711 329.723 817.02 330.081C815.052 330.184 813.084 330.288 811.056 330.394C809.28 330.49 807.504 330.586 805.675 330.684C803.364 330.807 803.364 330.807 801.006 330.932C797.233 331.127 797.233 331.127 793.906 331.846C792.759 331.75 791.613 331.654 790.432 331.555C790.457 332.025 790.482 332.496 790.508 332.981C788.81 333.229 787.111 333.477 785.361 333.732C781.279 332.837 777.198 331.942 773.116 331.046Z" fill="#474747"/>
<path d="M-35.7388 455.232C-35.1144 453.054 -35.1144 453.054 -33.6494 450.516C-31.3874 446.667 -31.3874 446.667 -33.4502 442.79C-33.8952 436.848 -33.8952 436.848 -32.288 434.377C-30.7387 431.431 -30.8763 428.615 -30.8539 425.583C-30.8459 424.907 -30.838 424.231 -30.8297 423.534C-30.8055 421.258 -30.797 418.981 -30.7884 416.705C-30.7741 415.061 -30.759 413.417 -30.7429 411.773C-30.7014 407.246 -30.6737 402.72 -30.6481 398.193C-30.6181 393.315 -30.5756 388.438 -30.5345 383.56C-30.4652 375.105 -30.4038 366.651 -30.3478 358.197C-30.2669 345.973 -30.174 333.75 -30.078 321.526C-29.9227 301.695 -29.7772 281.865 -29.6378 262.034C-29.5024 242.767 -29.3623 223.501 -29.2161 204.235C-29.2071 203.047 -29.1981 201.86 -29.1888 200.637C-29.1436 194.682 -29.0983 188.727 -29.0529 182.771C-28.6766 133.348 -28.3164 83.9249 -27.9661 34.5015C-17.8575 34.5831 -7.74895 34.6647 2.66595 34.7488C2.65829 35.6977 2.65063 36.6466 2.64274 37.6242C6.17899 39.2918 9.82422 40.9158 13.5441 42.5049C14.5763 43.2249 15.6085 43.9449 16.6719 44.6868C21.5874 47.1478 25.9912 47.1964 33.1974 47.4561C34.6441 47.1515 36.0907 46.8469 37.5812 46.533C44.0402 46.6466 50.4183 46.8184 56.8601 47.0481C59.5101 47.1325 59.5101 47.1325 62.2137 47.2186C70.9903 47.5162 79.2782 47.9947 87.8898 48.8562C91.9518 48.8297 91.9518 48.8297 96.0958 48.8026C110.951 48.8364 123.656 51.4527 135.979 54.9956C137.424 55.0072 138.868 55.0189 140.355 55.0309C140.35 55.6635 140.345 56.2961 140.34 56.9478C141.784 56.9595 143.228 56.9711 144.716 56.9831C148.002 58.6871 148.002 58.6871 151.523 60.8722C152.696 61.5934 153.869 62.3146 155.078 63.0576C156.416 63.8987 156.416 63.8987 157.782 64.7568C160.356 64.6195 162.929 64.4821 165.581 64.3405C176.43 63.8385 186.682 63.4574 197.166 65.0748C204.504 64.9952 211.778 64.8118 219.094 64.5966C227.551 64.382 234.903 64.4192 243.114 65.4457C243.119 64.8131 243.125 64.1805 243.13 63.5288C245.298 63.2299 247.467 62.9312 249.702 62.6233C250.421 62.9454 251.141 63.2675 251.882 63.5994C256.904 63.7089 261.892 63.6768 266.916 63.6609C271.574 63.7584 271.574 63.7584 275.942 64.7522C276.661 66.036 277.38 67.3199 278.099 68.6037C279.541 68.9317 280.982 69.2596 282.467 69.5975C282.462 70.2301 282.457 70.8627 282.452 71.5144C295.437 73.0427 295.437 73.0427 308.685 74.6018C308.69 73.9692 308.695 73.3366 308.7 72.6848C318.021 71.6476 325.518 72.0904 334.956 72.8968C335.686 71.9537 336.416 71.0107 337.168 70.0391C339.334 70.0565 341.5 70.074 343.732 70.092C343.726 70.7246 343.721 71.3572 343.716 72.009C348.048 72.044 352.381 72.0789 356.844 72.115C356.839 72.7475 356.834 73.3801 356.829 74.0319C358.273 74.0435 359.717 74.0552 361.205 74.0672C361.21 73.4346 361.215 72.802 361.22 72.1503C378.591 70.2548 395.431 70.0661 413.343 69.995C417.64 69.962 417.64 69.962 422.023 69.9284C443.281 69.8083 443.281 69.8083 453.132 70.9752C458.179 71.1057 463.232 71.182 468.284 71.2248C469.741 71.2375 471.198 71.2502 472.699 71.2632C475.776 71.2887 478.852 71.3118 481.929 71.3326C486.596 71.3652 491.262 71.4079 495.929 71.4517C498.931 71.4753 501.932 71.4983 504.933 71.5207C507.639 71.5414 510.345 71.5622 513.133 71.5836C521.073 71.5219 528.503 71.3555 536.284 70.6879C537.735 69.7507 539.187 68.8135 540.683 67.8479C544.329 67.8353 547.978 67.8687 551.623 67.9362C558.197 67.0004 561.05 65.8003 566.017 63.6192C571.369 61.3859 571.369 61.3859 577.933 61.4389C577.487 60.8422 577.04 60.2455 576.58 59.6307C576.315 58.9564 576.049 58.2821 575.776 57.5873C581.255 55.24 583.832 55.3907 591.386 55.1972C594.374 55.1139 594.374 55.1139 597.422 55.0288C598.951 54.9942 600.48 54.9596 602.055 54.9239C602.048 55.8728 602.04 56.8217 602.032 57.7993C604.198 57.8168 606.364 57.8343 608.596 57.8523C608.591 58.4849 608.586 59.1175 608.581 59.7692C610.927 59.8672 613.273 59.9652 615.69 60.0662C624.925 60.9505 626.332 61.8583 632.61 64.7558C637.693 65.4617 642.793 66.1431 647.911 66.7964C650.135 67.7532 652.313 68.7311 654.451 69.7248C659.998 71.385 665.576 72.7442 671.925 73.7C678.017 73.0831 678.017 73.0831 682.88 71.8713C685.044 72.2051 687.207 72.5389 689.436 72.8828C689.429 73.8317 689.421 74.7806 689.413 75.7582C691.807 75.56 694.2 75.3619 696.666 75.1578C699.329 75.0804 701.993 75.0031 704.737 74.9234C708.282 76.27 708.282 76.27 711.278 77.8517C717.907 78.7936 723.296 78.8992 730.279 78.9038C737.526 79.0222 737.526 79.0222 741.886 80.9744C747.505 81.3131 752.927 81.5532 758.565 81.7081C760.11 81.7577 761.656 81.8072 763.248 81.8583C767.064 81.9794 770.881 82.0897 774.699 82.1978C774.694 82.8304 774.689 83.463 774.683 84.1148C785.519 83.5696 796.355 83.0244 807.519 82.4628C807.521 82.1465 807.524 81.8302 807.527 81.5043C809.557 81.5603 811.587 81.6162 813.679 81.6738C823.043 81.766 831.84 80.9945 841 80.2731C846.294 79.9446 850.897 79.893 856.225 80.0403C868.362 80.0496 876.21 78.3032 886.349 75.4309C888.515 75.4484 890.681 75.4659 892.913 75.4839C892.918 74.8513 892.923 74.2187 892.928 73.567C895.817 73.5903 898.705 73.6136 901.68 73.6376C901.688 72.6888 901.696 71.7399 901.704 70.7622C922.003 66.6927 938.296 64.9424 960.826 65.4884C960.821 66.1209 960.816 66.7535 960.811 67.4053C966.255 68.1078 970.384 68.4411 976.119 68.4874C979.048 68.8046 981.967 69.1428 984.863 69.5165C984.858 70.1491 984.853 70.7817 984.848 71.4334C997.657 71.7365 1007.67 71.607 1019.87 69.7991C1024.52 70.256 1024.52 70.256 1028.62 70.8282C1029.82 70.6897 1031.02 70.5511 1032.26 70.4083C1041.86 69.5302 1051.83 70.1013 1061.61 70.2896C1069.31 70.2141 1075.67 69.663 1083.05 68.8337C1091.75 68.0805 1100.47 68.257 1109.32 68.3645C1111.19 68.3722 1113.06 68.3799 1114.98 68.3878C1117.66 68.413 1117.66 68.413 1120.38 68.4388C1121.99 68.454 1123.6 68.4691 1125.25 68.4847C1129.29 68.7653 1129.29 68.7653 1133.65 70.7176C1141.49 70.9407 1141.49 70.9407 1148.96 70.8412C1150.4 72.1181 1151.83 73.3949 1153.31 74.7104C1150.42 75.0034 1147.53 75.2964 1144.55 75.5982C1145.89 75.598 1147.24 75.5977 1148.63 75.5974C1151.28 75.6059 1151.28 75.6059 1153.99 75.6145C1155.74 75.6175 1157.49 75.6205 1159.29 75.6236C1164.24 75.7572 1164.24 75.7572 1170.8 76.7686C1174.82 76.7428 1178.83 76.6484 1182.83 76.5064C1184.93 76.4368 1187.03 76.3673 1189.2 76.2956C1195.11 76.0708 1195.11 76.0707 1201.44 75.099C1200.73 74.4606 1200.01 73.8222 1199.27 73.1644C1200.72 72.8598 1202.17 72.5551 1203.66 72.2413C1204.39 71.2982 1205.12 70.3552 1205.87 69.3835C1214.62 69.4542 1223.37 69.5248 1232.12 69.5955C1235.18 69.4998 1238.24 69.3837 1241.29 69.2501C1242.99 69.1773 1244.69 69.1046 1246.44 69.0296C1249.1 68.914 1249.1 68.914 1251.82 68.796C1255.52 68.645 1259.21 68.495 1262.9 68.3463C1265.75 68.2308 1268.59 68.1154 1271.52 67.9965C1271.53 67.6802 1271.53 67.3639 1271.53 67.038C1275.86 67.073 1280.2 67.108 1284.66 67.144C1284.66 66.5114 1284.67 65.8788 1284.67 65.2271C1287.4 65.2825 1287.4 65.2825 1290.19 65.339C1292.56 65.3755 1294.94 65.412 1297.39 65.4495C1299.75 65.4909 1302.11 65.5321 1304.54 65.5747C1311.35 65.6631 1311.35 65.6631 1317.51 63.5751C1322.61 63.5405 1327.72 63.5732 1332.83 63.6987C1332.1 64.6418 1331.37 65.5848 1330.61 66.5565C1332.15 66.4552 1333.68 66.3539 1335.27 66.2496C1354.31 65.2704 1354.31 65.2704 1363.29 67.7189C1372.83 70.3114 1381.29 70.0871 1392.2 70.0004C1399.69 69.9751 1406.37 70.4644 1413.73 71.0615C1416.62 71.0848 1419.5 71.1081 1422.48 71.1322C1423.2 71.138 1423.92 71.1438 1424.67 71.1498C1429.04 71.1542 1433.41 71.1586 1437.78 71.1621C1444.75 71.3668 1448.18 72.0557 1453.09 74.2548C1455.26 73.3234 1457.44 72.392 1459.68 71.4324C1461.84 71.7662 1464 72.1 1466.23 72.4439C1466.23 73.0765 1466.22 73.7091 1466.22 74.3608C1474.09 74.9876 1481.33 75.4444 1489.32 75.386C1496.84 75.5666 1496.84 75.5666 1503.26 77.0561C1509.95 78.843 1509.95 78.843 1518.29 78.4356C1528.58 78.3125 1534.17 80.4368 1542.2 83.0955C1549.27 85.2662 1556.51 86.3299 1564.58 87.6157C1566.74 88.2658 1568.9 88.9159 1571.12 89.5856C1571.12 90.2182 1571.11 90.8508 1571.11 91.5025C1574.98 91.6952 1578.86 91.8858 1582.73 92.0756C1584.89 92.182 1587.04 92.2884 1589.27 92.3979C1595.27 92.6948 1595.27 92.6949 1601.73 92.7083C1609.05 93.155 1616.35 93.6306 1623.65 94.1208C1631.71 94.6464 1639.53 95.0423 1647.67 94.9961C1647.66 95.945 1647.65 96.8939 1647.64 97.8715C1648.55 97.4145 1649.45 96.9575 1650.39 96.4865C1654.96 94.7755 1657.05 94.6796 1663.01 94.6295C1665.5 94.5986 1665.5 94.5986 1668.03 94.5671C1669.75 94.5593 1671.47 94.5516 1673.24 94.5436C1674.99 94.525 1676.73 94.5063 1678.53 94.4871C1682.83 94.4428 1687.13 94.4153 1691.43 94.3909C1691.43 95.0235 1691.42 95.6561 1691.42 96.3079C1692.74 96.3766 1694.06 96.4453 1695.42 96.5161C1697.16 96.6106 1698.91 96.705 1700.71 96.8023C1702.44 96.894 1704.17 96.9858 1705.94 97.0804C1710.72 97.3995 1715.21 97.8616 1719.85 98.4544C1719.84 99.087 1719.84 99.7196 1719.83 100.371C1722.72 100.078 1725.61 99.7854 1728.59 99.4835C1728.59 100.116 1728.58 100.749 1728.58 101.4C1738.64 101.662 1738.64 101.662 1748.41 100.902C1752.65 100.636 1752.65 100.636 1758.93 102.185C1765.64 103.963 1765.64 103.963 1772.87 102.956C1776.37 102.29 1779.85 101.607 1783.28 100.884C1792.72 100.527 1802.18 100.383 1811.65 100.254C1815.87 100.193 1820.09 100.111 1824.3 100.028C1826.79 100.005 1829.28 99.9814 1831.84 99.9576C1834.08 99.9287 1836.33 99.8998 1838.64 99.8701C1844.56 100.42 1844.56 100.42 1849.22 102.41C1854.27 105.989 1854.47 108.843 1854.34 112.891C1854.35 113.65 1854.36 114.41 1854.37 115.193C1854.4 117.735 1854.36 120.276 1854.32 122.817C1854.33 124.641 1854.33 126.464 1854.35 128.287C1854.37 133.236 1854.33 138.184 1854.29 143.133C1854.26 148.305 1854.27 153.477 1854.28 158.649C1854.29 168.443 1854.26 178.236 1854.21 188.029C1854.15 199.179 1854.14 210.329 1854.14 221.478C1854.14 244.414 1854.07 267.349 1853.96 290.284C1854.69 290.29 1855.41 290.296 1856.15 290.302C1855.67 350.397 1855.18 410.493 1854.68 472.41C1846.51 474.13 1844.07 474.481 1835.55 474.411C1832.41 474.392 1832.41 474.392 1829.2 474.373C1826.9 474.35 1824.6 474.326 1822.24 474.302C1819.78 474.284 1817.33 474.267 1814.8 474.249C1806.5 474.187 1798.2 474.112 1789.9 474.037C1783.91 473.988 1777.92 473.943 1771.94 473.897C1757.15 473.783 1742.36 473.658 1727.58 473.53C1709.85 473.376 1692.12 473.234 1674.39 473.092C1639.54 472.812 1604.69 472.52 1569.84 472.224C1539.12 471.963 1508.41 471.707 1477.7 471.454C1260.69 469.665 1043.68 467.738 608.194 463.665C456.818 462.223 305.441 460.808 154.063 459.554C141.156 459.447 128.249 459.338 115.342 459.228C99.8683 459.095 84.3943 458.967 68.9202 458.842C61.0605 458.779 53.2008 458.715 45.3411 458.646C36.8492 458.572 28.3573 458.506 19.8653 458.44C17.368 458.417 14.8707 458.394 12.2978 458.371C10.0438 458.355 7.78976 458.339 5.46746 458.322C2.53478 458.298 2.53479 458.298 -0.457129 458.273C-5.24531 458.222 -5.24531 458.222 -9.5137 459.278C-10.9552 458.95 -12.3968 458.622 -13.882 458.284C-13.8896 459.233 -13.8973 460.182 -13.9052 461.16C-16.0739 461.458 -18.2425 461.757 -20.4769 462.065C-25.5642 459.787 -30.6515 457.51 -35.7388 455.232Z" fill="#1B2735"/>
<path d="M1936.16 262.284C1935.67 264.98 1935.67 264.98 1934.51 268.128C1932.73 272.904 1932.73 272.904 1934.41 277.67C1934.8 285.002 1934.8 285.002 1933.53 288.07C1932.31 291.723 1932.44 295.197 1932.44 298.942C1932.44 299.777 1932.44 300.611 1932.44 301.471C1932.43 304.282 1932.44 307.093 1932.45 309.904C1932.45 311.934 1932.45 313.964 1932.45 315.994C1932.44 321.583 1932.45 327.173 1932.46 332.762C1932.47 338.785 1932.47 344.808 1932.47 350.831C1932.47 361.27 1932.48 371.709 1932.49 382.149C1932.51 397.242 1932.51 412.335 1932.52 427.428C1932.53 451.915 1932.55 476.401 1932.57 500.888C1932.59 524.678 1932.61 548.467 1932.62 572.257C1932.62 573.723 1932.62 575.189 1932.62 576.699C1932.62 584.052 1932.63 591.406 1932.63 598.759C1932.66 659.786 1932.71 720.812 1932.76 781.839C1924.66 781.84 1916.56 781.842 1908.21 781.844C1908.21 780.672 1908.21 779.501 1908.21 778.293C1905.37 776.27 1902.44 774.302 1899.44 772.378C1898.61 771.499 1897.78 770.621 1896.92 769.715C1892.97 766.727 1889.44 766.711 1883.66 766.464C1882.51 766.854 1881.35 767.245 1880.16 767.648C1874.98 767.573 1869.87 767.426 1864.71 767.207C1862.58 767.13 1862.58 767.13 1860.42 767.051C1853.38 766.773 1846.74 766.266 1839.83 765.289C1836.58 765.363 1836.58 765.363 1833.26 765.439C1821.35 765.547 1811.16 762.446 1801.26 758.196C1800.1 758.197 1798.94 758.197 1797.75 758.197C1797.75 757.416 1797.75 756.635 1797.75 755.83C1796.59 755.83 1795.44 755.831 1794.24 755.831C1791.6 753.76 1791.6 753.76 1788.76 751.098C1787.82 750.22 1786.87 749.341 1785.9 748.436C1784.82 747.411 1784.82 747.411 1783.72 746.365C1781.66 746.561 1779.6 746.757 1777.48 746.958C1768.79 747.688 1760.57 748.263 1752.16 746.372C1746.28 746.544 1740.46 746.845 1734.6 747.185C1727.82 747.535 1721.93 747.564 1715.34 746.38C1715.34 747.161 1715.34 747.942 1715.34 748.747C1713.61 749.137 1711.87 749.528 1710.09 749.931C1709.51 749.541 1708.93 749.15 1708.33 748.748C1704.31 748.664 1700.31 748.754 1696.28 748.825C1692.55 748.751 1692.55 748.751 1689.05 747.569C1688.46 745.991 1687.88 744.413 1687.29 742.835C1686.13 742.445 1684.98 742.054 1683.78 741.652C1683.78 740.871 1683.78 740.09 1683.78 739.285C1673.37 737.53 1673.37 737.53 1662.74 735.739C1662.74 736.52 1662.74 737.301 1662.74 738.106C1655.28 739.481 1649.27 739.01 1641.71 738.111C1641.13 739.282 1640.55 740.454 1639.95 741.661C1638.22 741.662 1636.48 741.662 1634.69 741.662C1634.69 740.881 1634.69 740.1 1634.69 739.296C1631.22 739.296 1627.75 739.297 1624.17 739.298C1624.17 738.517 1624.17 737.736 1624.17 736.931C1623.01 736.931 1621.86 736.931 1620.67 736.931C1620.67 737.713 1620.67 738.494 1620.67 739.298C1606.76 741.815 1593.27 742.219 1578.92 742.488C1575.47 742.572 1575.47 742.572 1571.96 742.658C1554.93 743.022 1554.93 743.022 1547.03 741.681C1542.98 741.571 1538.93 741.528 1534.89 741.526C1533.72 741.525 1532.55 741.524 1531.35 741.524C1528.88 741.523 1526.42 741.526 1523.95 741.531C1520.21 741.538 1516.47 741.533 1512.73 741.526C1510.33 741.528 1507.92 741.53 1505.52 741.532C1503.35 741.534 1501.18 741.536 1498.95 741.538C1492.59 741.695 1486.63 741.975 1480.4 742.878C1479.25 744.05 1478.09 745.222 1476.9 746.43C1473.98 746.482 1471.05 746.478 1468.13 746.431C1462.87 747.653 1460.59 749.164 1456.63 751.907C1452.35 754.719 1452.35 754.719 1447.09 754.72C1447.46 755.452 1447.82 756.185 1448.19 756.939C1448.41 757.769 1448.63 758.599 1448.85 759.454C1444.47 762.408 1442.41 762.248 1436.36 762.563C1433.96 762.696 1433.96 762.696 1431.52 762.832C1430.3 762.891 1429.07 762.949 1427.81 763.009C1427.81 761.837 1427.81 760.665 1427.81 759.458C1426.07 759.459 1424.34 759.459 1422.55 759.459C1422.55 758.678 1422.55 757.897 1422.55 757.092C1420.67 756.995 1418.79 756.898 1416.85 756.798C1409.45 755.8 1408.31 754.693 1403.26 751.179C1399.18 750.359 1395.09 749.569 1390.99 748.815C1389.2 747.656 1387.45 746.47 1385.73 745.265C1381.27 743.272 1376.79 741.65 1371.7 740.534C1366.82 741.358 1366.82 741.358 1362.93 742.903C1361.2 742.513 1359.46 742.123 1357.67 741.721C1357.67 740.549 1357.67 739.377 1357.67 738.17C1355.76 738.439 1353.84 738.708 1351.87 738.985C1349.73 739.107 1347.6 739.23 1345.4 739.356C1342.55 737.73 1342.55 737.729 1340.14 735.807C1334.82 734.711 1330.5 734.635 1324.91 734.7C1319.1 734.628 1319.1 734.628 1315.59 732.261C1311.09 731.9 1306.74 731.659 1302.23 731.525C1300.99 731.479 1299.75 731.434 1298.47 731.387C1295.41 731.276 1292.35 731.178 1289.29 731.083C1289.29 730.302 1289.29 729.521 1289.29 728.717C1280.62 729.499 1271.94 730.282 1263 731.089C1263 731.48 1263 731.87 1263 732.273C1261.37 732.224 1259.74 732.176 1258.06 732.126C1250.56 732.107 1243.52 733.148 1236.18 734.132C1231.94 734.591 1228.26 734.702 1223.99 734.574C1214.26 734.685 1207.98 736.921 1199.88 740.57C1198.14 740.571 1196.41 740.571 1194.62 740.571C1194.62 741.352 1194.62 742.134 1194.62 742.938C1192.31 742.939 1189.99 742.939 1187.61 742.94C1187.61 744.111 1187.61 745.283 1187.61 746.49C1171.37 751.721 1158.33 754.047 1140.27 753.601C1140.27 752.82 1140.27 752.039 1140.27 751.234C1135.9 750.422 1132.59 750.052 1128 750.053C1125.65 749.691 1123.31 749.303 1120.98 748.871C1120.98 748.09 1120.98 747.309 1120.98 746.504C1110.72 746.26 1102.69 746.521 1092.93 748.877C1089.21 748.36 1089.21 748.36 1085.92 747.695C1084.95 747.878 1083.99 748.062 1083 748.25C1075.31 749.432 1067.32 748.828 1059.48 748.695C1053.32 748.866 1048.23 749.611 1042.31 750.71C1035.35 751.728 1028.36 751.598 1021.27 751.555C1019.77 751.564 1018.27 751.574 1016.73 751.584C1014.59 751.58 1014.59 751.58 1012.4 751.575C1011.12 751.573 1009.83 751.571 1008.5 751.568C1005.27 751.262 1005.27 751.262 1001.76 748.896C995.478 748.7 995.478 748.7 989.488 748.899C988.33 747.337 987.173 745.775 985.98 744.166C988.294 743.775 990.609 743.383 992.993 742.981C991.915 742.995 990.837 743.009 989.726 743.023C987.601 743.039 987.601 743.039 985.432 743.056C984.028 743.07 982.625 743.084 981.179 743.099C977.214 742.984 977.213 742.984 971.953 741.801C968.733 741.874 965.516 742.031 962.31 742.247C960.629 742.355 958.948 742.462 957.215 742.572C952.477 742.91 952.478 742.91 947.408 744.174C947.987 744.955 948.565 745.736 949.162 746.54C948.005 746.931 946.848 747.322 945.655 747.724C945.077 748.896 944.499 750.068 943.903 751.275C936.89 751.277 929.877 751.278 922.864 751.28C920.413 751.429 917.965 751.603 915.522 751.799C914.161 751.906 912.801 752.013 911.399 752.124C909.263 752.293 909.263 752.293 907.084 752.467C904.126 752.69 901.167 752.913 898.209 753.134C895.93 753.305 893.652 753.477 891.305 753.653C891.305 754.044 891.305 754.434 891.305 754.837C887.834 754.838 884.362 754.838 880.786 754.839C880.786 755.62 880.786 756.401 880.786 757.206C878.6 757.165 878.6 757.165 876.369 757.124C874.463 757.103 872.558 757.082 870.595 757.06C868.703 757.033 866.812 757.006 864.863 756.978C859.407 756.938 859.407 756.938 854.487 759.579C850.399 759.673 846.303 759.684 842.215 759.581C842.793 758.409 843.371 757.238 843.967 756.03C842.738 756.171 841.508 756.311 840.241 756.456C824.991 757.858 824.991 757.858 817.777 754.926C810.118 751.822 803.339 752.185 794.594 752.402C788.597 752.509 783.243 751.973 777.341 751.31C775.027 751.311 772.713 751.311 770.328 751.312C769.75 751.312 769.171 751.312 768.575 751.312C765.073 751.351 761.571 751.39 758.069 751.43C752.484 751.248 749.732 750.432 745.782 747.766C744.046 748.938 742.311 750.11 740.523 751.318C738.787 750.928 737.051 750.538 735.263 750.136C735.262 749.355 735.262 748.573 735.262 747.769C728.951 747.074 723.147 746.584 716.743 746.737C710.716 746.59 710.716 746.59 705.565 744.816C700.189 742.678 700.189 742.678 693.511 743.265C685.263 743.522 680.773 740.955 674.32 737.754C668.644 735.146 662.836 733.906 656.361 732.4C654.625 731.619 652.889 730.838 651.101 730.034C651.101 729.253 651.101 728.472 651.1 727.667C647.996 727.468 644.891 727.272 641.786 727.077C640.057 726.968 638.328 726.858 636.547 726.745C631.732 726.44 631.732 726.44 626.554 726.489C620.691 726.011 614.839 725.498 608.987 724.967C602.525 724.399 596.254 723.99 589.735 724.129C589.735 722.958 589.734 721.786 589.734 720.579C589.011 721.152 588.289 721.726 587.544 722.317C583.891 724.476 582.222 724.615 577.442 724.737C575.45 724.801 575.45 724.801 573.418 724.865C572.04 724.892 570.663 724.919 569.244 724.947C567.846 724.988 566.448 725.029 565.008 725.071C561.563 725.169 558.116 725.246 554.67 725.32C554.669 724.539 554.669 723.758 554.669 722.953C553.611 722.882 552.554 722.81 551.464 722.737C550.063 722.638 548.661 722.539 547.218 722.437C545.834 722.341 544.451 722.245 543.026 722.147C539.199 721.801 535.598 721.276 531.876 720.591C531.876 719.81 531.876 719.029 531.876 718.224C529.561 718.615 527.247 719.006 524.863 719.409C524.862 718.628 524.862 717.847 524.862 717.042C516.798 716.82 516.798 716.82 508.973 717.859C505.576 718.229 505.576 718.229 500.535 716.381C495.15 714.254 495.15 714.254 489.358 715.57C486.562 716.429 483.778 717.307 481.03 718.235C473.472 718.771 473.754 698.743 466.165 698.999C462.785 699.116 469.543 703.761 466.165 703.907C464.172 703.961 487.833 627.08 458.302 690.162C456.505 690.22 481.139 620.977 455.164 693.385C450.418 692.766 451.911 659.194 448.164 656.783C444.093 652.416 428.585 676.504 428.662 671.504C432.352 644.666 428.649 670.567 428.662 671.504C428.626 668.366 423.949 695.012 423.963 691.873C423.947 689.622 423.928 687.371 423.907 685.119C423.856 679.009 423.849 672.899 423.85 666.789C423.843 660.403 423.796 654.017 423.754 647.631C423.681 635.539 423.643 623.447 423.617 611.355C423.586 597.588 423.516 583.821 423.443 570.055C423.292 541.736 423.191 513.417 423.123 485.099C422.545 485.099 421.966 485.099 421.37 485.099C421.354 410.894 421.339 336.689 421.323 260.235C427.856 258.029 429.809 257.571 436.64 257.57C439.157 257.562 439.157 257.562 441.725 257.553C443.567 257.559 445.41 257.564 447.308 257.57C449.275 257.567 451.241 257.564 453.268 257.56C459.919 257.552 466.57 257.561 473.221 257.57C478.018 257.569 482.815 257.564 487.612 257.56C499.462 257.552 511.311 257.556 523.16 257.564C537.367 257.574 551.574 257.57 565.781 257.566C593.707 257.558 621.633 257.565 649.559 257.577C674.17 257.588 698.781 257.594 723.392 257.595C897.285 257.604 1071.18 257.783 1420.14 258.399C1541.44 258.645 1662.74 258.858 1784.05 258.872C1794.39 258.873 1804.73 258.877 1815.07 258.883C1827.47 258.889 1839.87 258.891 1852.27 258.888C1858.57 258.886 1864.87 258.886 1871.17 258.891C1877.97 258.896 1884.78 258.892 1891.58 258.887C1893.58 258.89 1895.58 258.893 1897.65 258.896C1899.45 258.893 1901.26 258.89 1903.12 258.887C1905.47 258.887 1905.47 258.887 1907.87 258.887C1911.7 258.902 1911.7 258.902 1915.12 257.555C1916.27 257.945 1917.43 258.336 1918.62 258.738C1918.62 257.566 1918.62 256.394 1918.62 255.187C1920.36 254.796 1922.09 254.405 1923.88 254.003C1927.97 256.763 1932.06 259.524 1936.16 262.284Z" fill="#474747"/>
<path d="M1949.76 105.796C1949.16 109.232 1949.16 109.232 1947.69 113.252C1945.42 119.349 1945.42 119.349 1947.64 125.402C1948.22 134.732 1948.22 134.732 1946.61 138.65C1945.06 143.313 1945.26 147.736 1945.3 152.503C1945.3 153.566 1945.31 154.628 1945.31 155.723C1945.33 159.302 1945.37 162.881 1945.41 166.46C1945.43 169.044 1945.45 171.629 1945.46 174.213C1945.51 181.329 1945.57 188.445 1945.64 195.561C1945.71 203.229 1945.76 210.898 1945.82 218.566C1945.92 231.857 1946.03 245.148 1946.14 258.438C1946.31 277.654 1946.46 296.871 1946.61 316.087C1946.86 347.262 1947.11 378.437 1947.37 409.613C1947.62 439.901 1947.87 470.189 1948.11 500.477C1948.12 502.343 1948.14 504.209 1948.15 506.132C1948.23 515.494 1948.3 524.856 1948.38 534.218C1948.99 611.915 1949.63 689.611 1950.27 767.308C1939.78 767.388 1929.28 767.468 1918.47 767.551C1918.46 766.059 1918.45 764.567 1918.43 763.03C1914.73 760.482 1910.91 758.004 1907.02 755.583C1905.93 754.473 1904.85 753.362 1903.73 752.218C1898.57 748.451 1894 748.465 1886.52 748.205C1885.02 748.714 1883.52 749.223 1881.98 749.747C1875.28 749.702 1868.65 749.563 1861.96 749.335C1859.21 749.257 1859.21 749.257 1856.4 749.177C1847.28 748.89 1838.67 748.309 1829.71 747.133C1825.5 747.258 1825.5 747.258 1821.2 747.386C1805.77 747.639 1792.53 743.789 1779.67 738.474C1778.17 738.485 1776.67 738.497 1775.12 738.508C1775.12 737.514 1775.11 736.52 1775.1 735.495C1773.6 735.506 1772.1 735.518 1770.56 735.53C1767.11 732.919 1767.11 732.919 1763.41 729.557C1762.18 728.447 1760.95 727.338 1759.68 726.195C1758.27 724.9 1758.27 724.9 1756.83 723.579C1754.17 723.848 1751.5 724.117 1748.75 724.395C1737.5 725.408 1726.86 726.218 1715.94 723.892C1708.33 724.168 1700.78 724.607 1693.19 725.096C1684.42 725.607 1676.78 725.7 1668.24 724.256C1668.25 725.251 1668.25 726.245 1668.26 727.27C1666.02 727.784 1663.77 728.299 1661.46 728.829C1660.71 728.337 1659.95 727.846 1659.18 727.339C1653.96 727.271 1648.78 727.424 1643.57 727.553C1638.73 727.496 1638.73 727.496 1634.18 726.023C1633.4 724.02 1632.63 722.017 1631.86 720.014C1630.35 719.528 1628.85 719.042 1627.3 718.542C1627.3 717.547 1627.29 716.553 1627.28 715.528C1613.77 713.394 1613.77 713.394 1599.99 711.216C1599.99 712.21 1600 713.205 1600.01 714.23C1590.35 716.052 1582.56 715.511 1572.75 714.438C1572.01 715.935 1571.27 717.433 1570.51 718.976C1568.26 718.993 1566.01 719.01 1563.7 719.028C1563.69 718.033 1563.68 717.039 1563.67 716.014C1559.18 716.048 1554.68 716.083 1550.04 716.118C1550.04 715.124 1550.03 714.129 1550.02 713.105C1548.52 713.116 1547.02 713.128 1545.48 713.139C1545.48 714.134 1545.49 715.128 1545.5 716.153C1527.51 719.491 1510.03 720.135 1491.44 720.616C1486.98 720.756 1486.98 720.756 1482.43 720.899C1460.36 721.527 1460.36 721.527 1450.11 719.895C1444.87 719.794 1439.62 719.779 1434.38 719.815C1432.87 719.826 1431.35 719.836 1429.79 719.846C1426.6 719.869 1423.41 719.897 1420.21 719.927C1415.37 719.972 1410.52 720.001 1405.68 720.029C1402.56 720.054 1399.44 720.079 1396.33 720.106C1393.52 720.129 1390.71 720.152 1387.81 720.176C1379.57 720.437 1371.86 720.852 1363.8 722.062C1362.31 723.565 1360.82 725.068 1359.29 726.617C1355.51 726.712 1351.72 726.734 1347.93 726.703C1341.13 728.31 1338.19 730.255 1333.08 733.786C1327.57 737.407 1327.57 737.407 1320.75 737.459C1321.23 738.388 1321.7 739.317 1322.19 740.274C1322.48 741.328 1322.77 742.383 1323.07 743.469C1317.43 747.272 1314.75 747.088 1306.92 747.548C1303.82 747.741 1303.82 747.741 1300.65 747.937C1299.07 748.023 1297.48 748.109 1295.85 748.198C1295.83 746.706 1295.82 745.214 1295.81 743.677C1293.56 743.694 1291.31 743.712 1289 743.729C1288.99 742.735 1288.98 741.74 1288.97 740.716C1286.54 740.61 1284.1 740.504 1281.59 740.395C1271.98 739.196 1270.5 737.798 1263.93 733.373C1258.64 732.368 1253.33 731.402 1248 730.481C1245.67 729.022 1243.39 727.53 1241.15 726.012C1235.36 723.517 1229.54 721.496 1222.93 720.124C1216.62 721.219 1216.62 721.219 1211.6 723.224C1209.35 722.744 1207.09 722.264 1204.77 721.77C1204.76 720.278 1204.75 718.786 1204.74 717.249C1202.26 717.61 1199.78 717.971 1197.22 718.343C1194.46 718.519 1191.69 718.696 1188.85 718.878C1185.14 716.834 1185.14 716.834 1182 714.409C1175.1 713.066 1169.5 713.011 1162.25 713.148C1154.73 713.111 1154.73 713.111 1150.16 710.132C1144.32 709.716 1138.69 709.45 1132.83 709.323C1131.23 709.277 1129.62 709.231 1127.97 709.183C1124 709.071 1120.04 708.977 1116.07 708.886C1116.06 707.891 1116.06 706.897 1116.05 705.872C1104.81 706.952 1093.57 708.033 1082 709.146C1082 709.643 1082 710.14 1082.01 710.653C1079.9 710.607 1077.79 710.561 1075.62 710.513C1065.9 710.561 1056.78 711.955 1047.29 713.278C1041.8 713.904 1037.02 714.08 1031.49 713.958C1018.89 714.194 1010.78 717.101 1000.31 721.825C998.06 721.842 995.811 721.859 993.494 721.877C993.502 722.872 993.509 723.866 993.517 724.891C990.518 724.914 987.52 724.936 984.43 724.96C984.442 726.452 984.453 727.943 984.465 729.48C963.476 736.296 946.597 739.383 923.199 738.99C923.191 737.995 923.183 737.001 923.176 735.976C917.51 734.984 913.217 734.545 907.262 734.591C904.215 734.153 901.178 733.681 898.164 733.153C898.157 732.159 898.149 731.165 898.141 730.14C884.838 729.928 874.445 730.338 861.817 733.431C856.985 732.809 856.985 732.809 852.719 731.994C851.473 732.236 850.228 732.479 848.944 732.729C838.998 734.307 828.635 733.615 818.476 733.521C810.493 733.798 803.901 734.796 796.249 736.252C787.242 737.615 778.176 737.517 768.989 737.531C767.05 737.557 765.111 737.584 763.114 737.611C760.338 737.626 760.338 737.626 757.506 737.642C755.837 737.651 754.168 737.661 752.449 737.67C748.257 737.313 748.257 737.313 743.69 734.334C735.548 734.145 735.548 734.145 727.789 734.455C726.274 732.478 724.76 730.5 723.199 728.463C726.194 727.943 729.189 727.422 732.274 726.887C730.878 726.915 729.481 726.943 728.042 726.972C725.288 727.013 725.288 727.013 722.478 727.056C720.66 727.087 718.842 727.118 716.968 727.151C711.829 727.043 711.829 727.043 705.003 725.588C700.831 725.712 696.665 725.943 692.513 726.249C690.335 726.401 688.158 726.554 685.914 726.711C679.779 727.186 679.779 727.186 673.222 728.845C673.98 729.833 674.737 730.822 675.517 731.841C674.021 732.349 672.526 732.858 670.985 733.382C670.247 734.88 669.509 736.377 668.748 737.92C659.661 737.989 650.575 738.059 641.488 738.128C638.314 738.342 635.144 738.587 631.98 738.86C630.218 739.01 628.456 739.159 626.641 739.313C623.876 739.55 623.876 739.55 621.054 739.791C617.223 740.105 613.392 740.417 609.56 740.727C606.61 740.967 603.66 741.207 600.621 741.454C600.625 741.951 600.628 742.449 600.632 742.961C596.134 742.995 591.636 743.03 587.002 743.065C587.01 744.06 587.017 745.054 587.025 746.079C584.192 746.048 584.192 746.048 581.301 746.016C578.832 746.008 576.363 746 573.82 745.991C571.368 745.975 568.917 745.959 566.391 745.942C559.322 745.943 559.322 745.943 552.973 749.353C547.676 749.512 542.369 749.566 537.071 749.474C537.809 747.977 538.548 746.479 539.309 744.936C537.717 745.127 536.125 745.318 534.485 745.515C514.738 747.447 514.738 747.447 505.365 743.783C495.412 739.904 486.632 740.432 475.302 740.793C467.533 740.987 460.592 740.356 452.939 739.569C449.94 739.592 446.942 739.615 443.852 739.638C443.102 739.644 442.353 739.65 441.58 739.656C437.043 739.739 432.506 739.822 427.969 739.907C420.731 739.728 417.158 738.716 412.014 735.361C409.776 736.87 407.539 738.379 405.234 739.933C402.981 739.453 400.728 738.973 398.407 738.479C398.399 737.484 398.392 736.49 398.384 735.465C390.2 734.642 382.676 734.073 374.379 734.33C366.569 734.201 366.569 734.201 359.879 731.992C352.892 729.321 352.893 729.321 344.246 730.134C333.561 730.539 327.72 727.315 319.328 723.302C311.949 720.035 304.413 718.512 296.009 716.658C293.752 715.68 291.496 714.703 289.171 713.696C289.163 712.702 289.156 711.707 289.148 710.683C285.124 710.46 281.099 710.24 277.074 710.022C274.833 709.899 272.591 709.776 270.282 709.65C264.04 709.307 264.04 709.307 257.333 709.419C249.732 708.868 242.145 708.27 234.557 707.65C226.178 706.99 218.05 706.529 209.605 706.77C209.593 705.278 209.582 703.786 209.57 702.249C208.639 702.987 207.708 703.724 206.749 704.483C202.036 707.267 199.874 707.461 193.682 707.663C191.102 707.762 191.102 707.762 188.47 707.864C186.685 707.912 184.901 707.959 183.062 708.009C181.251 708.074 179.441 708.139 177.575 708.207C173.112 708.365 168.647 708.497 164.182 708.624C164.175 707.629 164.167 706.635 164.159 705.61C162.788 705.529 161.417 705.449 160.005 705.365C158.188 705.253 156.371 705.14 154.5 705.025C152.707 704.916 150.914 704.807 149.066 704.695C144.104 704.292 139.433 703.658 134.605 702.822C134.597 701.828 134.59 700.833 134.582 699.809C131.587 700.329 128.592 700.849 125.506 701.385C125.499 700.39 125.491 699.396 125.483 698.371C115.033 698.167 115.033 698.167 104.904 699.564C100.506 700.069 100.507 700.069 93.9576 697.765C86.9597 695.108 86.9594 695.108 79.4675 696.839C75.8527 697.959 72.2538 699.104 68.7031 700.312C58.9148 701.067 49.0985 701.489 39.2681 701.887C34.8903 702.069 30.5155 702.285 26.1412 702.503C23.5589 702.591 20.9765 702.678 18.316 702.769C15.9885 702.86 13.6612 702.952 11.2632 703.046C5.1077 702.305 5.10746 702.305 0.230024 699.272C-5.08538 693.751 -5.35938 689.269 -5.30682 682.903C-5.33303 681.709 -5.35912 680.515 -5.38609 679.285C-5.46264 675.29 -5.47485 671.295 -5.48719 667.299C-5.52898 664.433 -5.57481 661.567 -5.62417 658.701C-5.74696 650.922 -5.81383 643.143 -5.87107 635.364C-5.94027 627.234 -6.06061 619.104 -6.17558 610.974C-6.38536 595.579 -6.54912 580.184 -6.69641 564.789C-6.86633 547.262 -7.08776 529.735 -7.31322 512.209C-7.77592 476.156 -8.17406 440.103 -8.53008 404.049C-9.27969 404.055 -10.0295 404.06 -10.8019 404.066C-11.5237 309.591 -12.2454 215.116 -12.9891 117.778C-4.54462 114.905 -2.01863 114.304 6.83232 114.238C10.0934 114.202 10.0934 114.202 13.4203 114.166C15.8074 114.156 18.1945 114.145 20.654 114.134C23.2021 114.111 25.7503 114.088 28.3757 114.064C36.9934 113.99 45.6108 113.937 54.2287 113.884C60.4442 113.837 66.6598 113.785 72.8753 113.733C88.2282 113.609 103.581 113.5 118.934 113.396C137.342 113.272 155.749 113.13 174.157 112.988C210.34 112.709 246.522 112.449 282.705 112.196C314.593 111.973 346.481 111.743 378.369 111.507C603.679 109.843 828.989 108.397 1281.14 105.82C1438.31 104.964 1595.48 104.068 1752.65 102.916C1766.05 102.818 1779.45 102.724 1792.85 102.631C1808.91 102.52 1824.98 102.403 1841.04 102.279C1849.2 102.216 1857.37 102.156 1865.53 102.101C1874.34 102.042 1883.16 101.972 1891.98 101.9C1894.57 101.884 1897.16 101.869 1899.83 101.853C1902.17 101.832 1904.51 101.811 1906.92 101.789C1909.97 101.766 1909.97 101.766 1913.08 101.743C1918.05 101.725 1918.05 101.725 1922.46 99.9771C1923.96 100.463 1925.46 100.949 1927.01 101.449C1927 99.9575 1926.99 98.4658 1926.98 96.9289C1929.22 96.4145 1931.47 95.9 1933.78 95.37C1939.11 98.8454 1944.43 102.321 1949.76 105.796Z" fill="#1B2735"/>
</svg>
