<svg
  width="24"
  height="24"
  viewBox="0 0 24 24"
  fill="none"
  xmlns="http://www.w3.org/2000/svg"
>
  <path
    d="M5.49961 12.4L1.59961 8.5L5.49961 4.6L9.39961 8.5L5.49961 12.4ZM8.99961 22V17C7.98294 16.9167 6.97461 16.7957 5.97461 16.637C4.97461 16.4783 3.98294 16.266 2.99961 16L3.49961 14C4.89961 14.3833 6.30394 14.646 7.71261 14.788C9.12128 14.93 10.5503 15.0007 11.9996 15C13.4489 14.9993 14.8783 14.9283 16.2876 14.787C17.6969 14.6457 19.1009 14.3833 20.4996 14L20.9996 16C20.0163 16.2667 19.0246 16.4793 18.0246 16.638C17.0246 16.7967 16.0163 16.9173 14.9996 17V22H8.99961ZM11.9996 7C11.1663 7 10.4579 6.70833 9.87461 6.125C9.29128 5.54167 8.99961 4.83333 8.99961 4C8.99961 3.16667 9.29128 2.45833 9.87461 1.875C10.4579 1.29167 11.1663 1 11.9996 1C12.8329 1 13.5413 1.29167 14.1246 1.875C14.7079 2.45833 14.9996 3.16667 14.9996 4C14.9996 4.83333 14.7079 5.54167 14.1246 6.125C13.5413 6.70833 12.8329 7 11.9996 7ZM11.9996 14C11.4496 14 10.9789 13.8043 10.5876 13.413C10.1963 13.0217 10.0003 12.5507 9.99961 12C9.99894 11.4493 10.1949 10.9787 10.5876 10.588C10.9803 10.1973 11.4509 10.0013 11.9996 10C12.5483 9.99867 13.0193 10.1947 13.4126 10.588C13.8059 10.9813 14.0016 11.452 13.9996 12C13.9976 12.548 13.8019 13.019 13.4126 13.413C13.0233 13.807 12.5523 14.0027 11.9996 14ZM17.0496 12L15.3496 9L17.0496 6H20.4496L22.1496 9L20.4496 12H17.0496Z"
    fill="black"
  ></path>
</svg>
