<svg width="226" height="62" viewBox="0 0 226 62" fill="none" xmlns="http://www.w3.org/2000/svg">
<mask id="mask0_987_415" style="mask-type:luminance" maskUnits="userSpaceOnUse" x="0" y="0" width="226" height="62">
<path d="M225.763 0H0V61.9267H225.763V0Z" fill="white"/>
</mask>
<g mask="url(#mask0_987_415)">
<path d="M89.183 30.2303V47.8856C89.183 48.5414 88.6545 49.073 88.0025 49.073H85.1259C84.4739 49.073 83.9453 48.5414 83.9453 47.8856V30.2303C83.9453 29.8555 84.2486 29.5505 84.6211 29.5505H88.5094C88.8819 29.5505 89.1852 29.8555 89.1852 30.2303" fill="white"/>
<path d="M89.463 24.2827C89.463 25.0495 89.1814 25.6966 88.6182 26.2282C88.055 26.7576 87.3705 27.0233 86.5604 27.0233C85.7502 27.0233 85.0636 26.7576 84.4939 26.2282C83.9263 25.6966 83.6426 25.0495 83.6426 24.2827C83.6426 23.5158 83.9263 22.8688 84.4939 22.3372C85.0614 21.8078 85.7437 21.542 86.543 21.542C87.3423 21.542 88.055 21.8078 88.6182 22.3372C89.1814 22.8688 89.463 23.518 89.463 24.2827Z" fill="white"/>
<path d="M83.9435 30.2302V47.8856C83.9435 48.5414 84.472 49.0729 85.124 49.0729H88.0006C88.6526 49.0729 89.1812 48.5414 89.1812 47.8856V30.2302C89.1812 29.8555 88.8779 29.5505 88.5053 29.5505H84.6171C84.2445 29.5505 83.9413 29.8555 83.9413 30.2302M88.6201 22.3372C88.0569 21.8078 87.3659 21.542 86.545 21.542C85.724 21.542 85.0655 21.8078 84.4958 22.3372C83.9283 22.8688 83.6445 23.518 83.6445 24.2827C83.6445 25.0474 83.9283 25.6966 84.4958 26.2282C85.0633 26.7576 85.7522 27.0233 86.5623 27.0233C87.3724 27.0233 88.0569 26.7576 88.6201 26.2282C89.1833 25.6966 89.4628 25.0495 89.4628 24.2827C89.4628 23.5158 89.1812 22.8688 88.6201 22.3372Z" fill="#01A8E2"/>
<path d="M111.372 33.8227C110.657 32.3304 109.697 31.1997 108.497 30.4263C107.295 29.6551 105.95 29.2673 104.462 29.2673C103.418 29.2673 102.534 29.4372 101.806 29.7793C101.078 30.1213 100.481 30.5548 100.013 31.0777C99.5448 31.6027 99.1679 32.1474 98.8885 32.7138H98.7477V23.3306C98.7477 22.9951 98.4769 22.7228 98.1433 22.7228H94.1143C93.7807 22.7228 93.5078 22.9951 93.5078 23.3306V48.1579C93.5078 48.6612 93.9129 49.0686 94.4133 49.0686H97.7556C98.256 49.0686 98.661 48.6612 98.661 48.1579V45.975H98.8712C99.1419 46.5392 99.5167 47.086 99.9975 47.6111C100.478 48.1361 101.085 48.5653 101.817 48.9008C102.549 49.2363 103.42 49.4041 104.427 49.4041C105.961 49.4041 107.334 49.0098 108.541 48.2189C109.747 47.4303 110.7 46.2865 111.398 44.7876C112.095 43.2909 112.444 41.4696 112.444 39.3237C112.444 37.1778 112.087 35.3064 111.372 33.8162M106.58 42.3803C106.258 43.2582 105.785 43.9423 105.166 44.4325C104.544 44.9205 103.775 45.1667 102.863 45.1667C101.951 45.1667 101.226 44.9227 100.587 44.4325C99.9477 43.9423 99.4582 43.2626 99.1181 42.389C98.778 41.5176 98.6091 40.4914 98.6091 39.3128C98.6091 38.1342 98.7758 37.1124 99.1094 36.2453C99.443 35.3804 99.9304 34.7072 100.569 34.2301C101.208 33.753 101.973 33.5134 102.863 33.5134C103.754 33.5134 104.544 33.7552 105.166 34.2389C105.785 34.7225 106.258 35.4 106.58 36.2715C106.903 37.1451 107.063 38.1581 107.063 39.3128C107.063 40.4675 106.903 41.5023 106.58 42.3803Z" fill="#01A8E2"/>
<path d="M132.884 40.6745C133.324 40.6745 133.679 40.3172 133.679 39.8749V39.2083C133.679 37.5808 133.447 36.1473 132.984 34.9012C132.52 33.6594 131.87 32.6202 131.032 31.7901C130.194 30.9601 129.219 30.3305 128.106 29.9078C126.99 29.483 125.786 29.2717 124.484 29.2717C122.595 29.2717 120.951 29.6987 119.543 30.5527C118.137 31.4067 117.045 32.5919 116.272 34.106C115.499 35.6201 115.113 37.3869 115.113 39.4022C115.113 41.4174 115.503 43.2169 116.283 44.7245C117.063 46.2342 118.17 47.402 119.606 48.2255C121.04 49.0512 122.749 49.4629 124.731 49.4629C126.254 49.4629 127.612 49.2298 128.801 48.7636C129.99 48.2974 130.982 47.6438 131.773 46.8007C132.332 46.2059 132.769 45.5371 133.086 44.7985C133.291 44.3193 132.982 43.7768 132.471 43.7005L129.236 43.2321C128.912 43.1842 128.589 43.3454 128.433 43.6373C128.27 43.9358 128.071 44.2016 127.835 44.4304C127.478 44.7789 127.044 45.0425 126.533 45.2255C126.024 45.4085 125.459 45.5001 124.837 45.5001C123.923 45.5001 123.124 45.304 122.437 44.9075C121.75 44.5131 121.222 43.9315 120.845 43.1646C120.823 43.121 120.804 43.0774 120.784 43.0339C120.769 43.0012 120.754 42.9685 120.741 42.9337C120.717 42.877 120.693 42.8182 120.672 42.7594C120.654 42.7136 120.637 42.6657 120.62 42.6178C120.602 42.572 120.587 42.5219 120.572 42.474C120.557 42.426 120.542 42.3759 120.529 42.3258C120.388 41.8269 120.308 41.2757 120.288 40.6723H132.884V40.6745ZM120.334 37.1974C120.338 37.1582 120.342 37.119 120.349 37.0819C120.351 37.0558 120.355 37.0297 120.36 37.0035C120.366 36.9491 120.377 36.8946 120.386 36.8423C120.392 36.8031 120.401 36.7617 120.407 36.7225C120.44 36.5656 120.477 36.4131 120.52 36.265C120.535 36.217 120.548 36.1713 120.563 36.1234C120.594 36.0297 120.628 35.9338 120.663 35.8423C120.7 35.7486 120.739 35.655 120.782 35.5635C121.116 34.8445 121.599 34.2781 122.231 33.8663C122.864 33.4546 123.631 33.2476 124.534 33.2476C125.437 33.2476 126.195 33.4502 126.81 33.8576C127.426 34.265 127.891 34.838 128.208 35.5809C128.229 35.631 128.249 35.6811 128.268 35.7312C128.281 35.7617 128.292 35.7922 128.303 35.8227C128.322 35.8772 128.342 35.9316 128.359 35.9861C128.377 36.0384 128.394 36.0907 128.409 36.1451C128.424 36.1909 128.437 36.2388 128.448 36.2868C128.459 36.3281 128.47 36.3717 128.48 36.4131C128.554 36.7094 128.606 37.0209 128.641 37.3521H120.31C120.314 37.2998 120.321 37.2497 120.327 37.1996" fill="#01A8E2"/>
<path d="M154.742 34.0079C154.038 32.4982 153.07 31.3326 151.833 30.5069C150.596 29.6812 149.158 29.2695 147.516 29.2695C146.344 29.2695 145.382 29.4612 144.632 29.8446C143.881 30.2281 143.285 30.679 142.839 31.1975C142.395 31.716 142.042 32.1931 141.784 32.6289H141.502V29.6812C141.502 29.6093 141.444 29.5527 141.375 29.5527H138.606C138.535 29.5527 138.479 29.6093 138.479 29.6812V56.0967C138.479 56.2993 138.643 56.4649 138.845 56.4649H141.11C141.385 56.4649 141.606 56.2405 141.606 55.966V46.0686H141.799C142.068 46.5174 142.43 47.0054 142.882 47.537C143.333 48.0664 143.937 48.5239 144.693 48.9074C145.449 49.2908 146.396 49.4825 147.533 49.4825C149.175 49.4825 150.613 49.0664 151.85 48.2364C153.085 47.4063 154.053 46.232 154.751 44.7179C155.448 43.2038 155.797 41.413 155.797 39.352C155.797 37.2911 155.446 35.522 154.742 34.0123M151.971 43.097C151.542 44.2059 150.916 45.0774 150.089 45.7157C149.264 46.3519 148.252 46.6699 147.056 46.6699C145.861 46.6699 144.882 46.3606 144.05 45.7419C143.218 45.1231 142.588 44.2626 142.161 43.1602C141.734 42.0578 141.52 40.7812 141.52 39.3324C141.52 37.8836 141.734 36.6135 142.161 35.5308C142.59 34.4458 143.212 33.6005 144.035 32.9927C144.853 32.3849 145.863 32.082 147.059 32.082C148.254 32.082 149.283 32.3936 150.108 33.0188C150.934 33.6441 151.56 34.5003 151.982 35.5918C152.405 36.6832 152.615 37.9294 152.615 39.3324C152.615 40.7354 152.4 41.9903 151.974 43.0992" fill="white"/>
<path d="M174.327 32.6376C173.859 31.7487 173.25 31.0603 172.507 30.5766C171.764 30.093 170.969 29.7553 170.124 29.5592C169.279 29.3653 168.482 29.2673 167.733 29.2673C166.617 29.2673 165.536 29.435 164.488 29.7705C163.44 30.106 162.51 30.6376 161.7 31.3631C160.983 32.0058 160.426 32.8336 160.032 33.8423C159.95 34.0515 160.071 34.2846 160.288 34.3391L162.61 34.9469C162.788 34.9926 162.972 34.9033 163.045 34.7356C163.216 34.3369 163.47 33.9556 163.803 33.5918C164.219 33.1365 164.759 32.7661 165.422 32.4785C166.082 32.1888 166.877 32.045 167.804 32.045C168.731 32.045 169.461 32.1953 170.072 32.496C170.681 32.7966 171.142 33.2301 171.454 33.7966C171.764 34.363 171.92 35.0406 171.92 35.8292V35.9534C171.92 36.437 171.747 36.7747 171.402 36.9708C171.056 37.1647 170.523 37.3041 169.801 37.3869C169.08 37.4697 168.127 37.5873 166.944 37.742C166.03 37.8597 165.125 38.0187 164.228 38.2191C163.331 38.4196 162.517 38.7224 161.785 39.1298C161.052 39.5372 160.465 40.0884 160.026 40.7833C159.586 41.4783 159.367 42.3868 159.367 43.5066C159.367 44.792 159.662 45.8834 160.255 46.7789C160.847 47.6743 161.644 48.354 162.647 48.8115C163.65 49.2712 164.772 49.5021 166.015 49.5021C167.128 49.5021 168.071 49.3409 168.846 49.0141C169.619 48.6895 170.246 48.2864 170.726 47.8028C171.207 47.3191 171.558 46.8486 171.781 46.3889H171.957V48.476C171.957 48.8071 172.223 49.0751 172.552 49.0751H174.437C174.766 49.0751 175.033 48.8071 175.033 48.476V36.0776C175.033 34.6746 174.799 33.5286 174.329 32.6376M171.916 41.9467C171.916 42.7484 171.71 43.5153 171.3 44.2451C170.891 44.9771 170.287 45.5697 169.49 46.0229C168.692 46.476 167.702 46.7026 166.518 46.7026C165.731 46.7026 165.04 46.5871 164.442 46.3584C163.845 46.1296 163.372 45.7876 163.028 45.3323C162.681 44.8791 162.508 44.3214 162.508 43.6613C162.508 42.9184 162.707 42.3302 163.106 41.8944C163.505 41.4587 164.031 41.1254 164.687 40.8945C165.344 40.6635 166.048 40.5023 166.797 40.4086C167.161 40.3607 167.603 40.3062 168.125 40.2409C168.647 40.1755 169.173 40.0971 169.706 40.0012C170.239 39.9076 170.709 39.8008 171.112 39.6832C171.517 39.5655 171.781 39.437 171.911 39.2954V41.9467H171.916Z" fill="white"/>
<path d="M193.307 40.2583C192.458 39.3803 191.141 38.7289 189.36 38.3041L186.388 37.5961C185.299 37.3368 184.491 36.9882 183.962 36.5525C183.434 36.1168 183.172 35.5329 183.172 34.8031C183.172 33.9774 183.549 33.2933 184.305 32.7509C185.061 32.2084 186.025 31.9383 187.196 31.9383C188.44 31.9383 189.386 32.2367 190.036 32.8315C190.547 33.2999 190.924 33.8206 191.163 34.3957C191.277 34.668 191.559 34.8271 191.847 34.7683L193.55 34.4219C193.909 34.3478 194.122 33.9731 194.002 33.6223C193.758 32.9034 193.409 32.2541 192.954 31.6746C192.363 30.9208 191.585 30.3304 190.625 29.9056C189.664 29.4808 188.516 29.2695 187.179 29.2695C185.843 29.2695 184.565 29.5113 183.488 29.9949C182.409 30.4786 181.562 31.1474 180.947 32.0014C180.332 32.8554 180.024 33.8423 180.024 34.9621C180.024 36.3412 180.458 37.4762 181.326 38.3673C182.193 39.2583 183.512 39.9097 185.282 40.3215L188.498 41.0993C189.436 41.3106 190.149 41.6417 190.634 42.0883C191.119 42.5371 191.362 43.1036 191.362 43.7877C191.362 44.6003 190.961 45.2996 190.157 45.8835C189.354 46.4673 188.279 46.7593 186.932 46.7593C185.726 46.7593 184.736 46.4978 183.969 45.9728C183.345 45.548 182.894 44.9336 182.615 44.1319C182.498 43.7964 182.154 43.5959 181.805 43.6635L180.189 43.9685C179.775 44.0469 179.515 44.4652 179.628 44.8748C179.866 45.7222 180.25 46.4564 180.776 47.0795C181.456 47.8812 182.323 48.4847 183.38 48.8921C184.435 49.2995 185.63 49.5021 186.967 49.5021C188.466 49.5021 189.789 49.2516 190.931 48.7505C192.075 48.2494 192.967 47.5566 193.612 46.6743C194.258 45.7898 194.579 44.7702 194.579 43.6155C194.579 42.2605 194.154 41.1428 193.305 40.2649" fill="white"/>
<path d="M212.249 40.6766C212.139 40.5328 212.02 40.3934 211.89 40.2605C211.038 39.3825 209.723 38.7311 207.941 38.3063L204.971 37.5982C204.54 37.4958 204.154 37.3804 203.812 37.2497C203.286 37.0514 202.863 36.8183 202.545 36.5547C202.016 36.119 201.754 35.5351 201.754 34.8053C201.754 33.9796 202.131 33.2955 202.889 32.753C203.645 32.2106 204.609 31.9404 205.781 31.9404C207.022 31.9404 207.969 32.2389 208.621 32.8336C209.191 33.3543 209.591 33.9404 209.823 34.5939C209.882 34.7552 210.044 34.851 210.211 34.8162L211.183 34.6179L212.425 34.3652C212.62 34.326 212.739 34.1277 212.685 33.936C212.516 33.35 212.279 32.8075 211.976 32.3086C211.842 32.0886 211.697 31.8772 211.539 31.6768C210.947 30.923 210.17 30.3326 209.21 29.91C208.248 29.4851 207.1 29.2738 205.764 29.2738C204.427 29.2738 203.149 29.5156 202.073 29.9993C200.994 30.4829 200.147 31.1518 199.532 32.0058C198.917 32.8598 198.609 33.8467 198.609 34.9665C198.609 36.3455 199.042 37.4806 199.911 38.3695C200.104 38.5655 200.316 38.7507 200.552 38.925C200.851 39.145 201.187 39.3476 201.557 39.5285C202.216 39.8531 202.985 40.1189 203.868 40.3237L206.73 41.0165L207.085 41.1014C208.023 41.3127 208.736 41.6439 209.221 42.0905C209.68 42.5131 209.921 43.0404 209.949 43.67C209.949 43.7092 209.951 43.7484 209.951 43.7876C209.951 44.6002 209.55 45.2996 208.747 45.8834C207.943 46.4673 206.868 46.7592 205.521 46.7592C204.315 46.7592 203.327 46.4978 202.56 45.9728C201.91 45.5283 201.447 44.8791 201.172 44.0251C201.083 43.7528 200.81 43.585 200.53 43.6373L198.618 43.999C198.299 44.06 198.093 44.3759 198.174 44.6917C198.405 45.6177 198.804 46.4107 199.369 47.0773C200.049 47.879 200.916 48.4825 201.971 48.8899C203.026 49.2973 204.221 49.4999 205.558 49.4999C207.059 49.4999 208.38 49.2494 209.522 48.7483C210.666 48.2472 211.558 47.5544 212.204 46.6721C212.849 45.7876 213.172 44.768 213.172 43.6133C213.172 42.4587 212.866 41.487 212.256 40.6788" fill="white"/>
<path d="M218.628 46.5414V47.8965H217.883V44.3628H218.907C219.384 44.3628 219.739 44.4499 219.967 44.6242C220.196 44.7985 220.311 45.0643 220.311 45.4216C220.311 45.6286 220.255 45.8137 220.14 45.9771C220.025 46.1383 219.865 46.2669 219.657 46.3584C220.185 47.1536 220.53 47.6655 220.69 47.8987H219.863L219.024 46.5436H218.628V46.5414ZM218.628 45.9314H218.868C219.105 45.9314 219.278 45.8922 219.39 45.8137C219.503 45.7353 219.559 45.6111 219.559 45.4412C219.559 45.2713 219.503 45.1536 219.388 45.0839C219.273 45.0142 219.096 44.9772 218.855 44.9772H218.63V45.9314H218.628Z" fill="white"/>
<path d="M219.171 49.2603C218.34 49.2603 217.558 48.9357 216.971 48.3431C216.384 47.7527 216.059 46.9663 216.059 46.1297C216.059 45.2931 216.381 44.5088 216.971 43.9162C217.558 43.3258 218.34 42.999 219.171 42.999C220.003 42.999 220.783 43.3236 221.372 43.9162C221.959 44.5066 222.284 45.2931 222.284 46.1297C222.284 46.9663 221.961 47.7505 221.372 48.3431C220.785 48.9335 220.003 49.2603 219.171 49.2603ZM219.171 43.4696C217.711 43.4696 216.526 44.6635 216.526 46.1297C216.526 47.5959 217.714 48.7897 219.171 48.7897C220.629 48.7897 221.816 47.5959 221.816 46.1297C221.816 44.6635 220.629 43.4696 219.171 43.4696Z" fill="white"/>
<path d="M79.9652 13.4572C79.3219 13.4572 78.7067 13.6446 78.1847 13.9823C77.6626 14.3156 77.2381 14.7992 76.9673 15.3896C76.6814 16.0105 76.3954 16.638 76.1052 17.2741C75.1022 19.4549 74.0712 21.7076 73.0574 23.9145C70.8805 28.6529 68.827 33.1321 67.2413 36.6048L67.1135 36.8902C66.9641 37.2192 66.8081 37.559 66.6348 37.9403C66.5915 38.0318 66.5503 38.1255 66.507 38.2257L66.0608 39.2039C66.0326 39.2736 65.9763 39.3172 65.9157 39.339C65.855 39.3172 65.7987 39.2736 65.7684 39.2039L65.3243 38.2257C65.281 38.1255 65.2377 38.0318 65.1965 37.9403C65.0211 37.559 64.8673 37.2192 64.7156 36.8902L64.5878 36.6048C63.0022 33.1321 60.9487 28.6529 58.7718 23.9145C57.7602 21.7076 56.7269 19.4549 55.724 17.2741C55.4359 16.638 55.1478 16.0105 54.8619 15.3896C54.5933 14.7992 54.1666 14.3178 53.6445 13.9823C53.1225 13.6446 52.5116 13.4572 51.864 13.4572H48.3613C48.3613 14.1805 48.5216 14.8907 48.827 15.5443L53.8135 26.1149C55.8843 30.5069 57.9551 34.899 60.026 39.2932C60.0736 39.3956 60.1213 39.4958 60.1689 39.5982C61.5704 42.5698 62.9719 45.5414 64.3734 48.5196C64.4405 48.6612 64.525 48.7919 64.6247 48.903C64.6571 48.9401 64.6918 48.9793 64.7265 49.0141C65.0362 49.3213 65.4543 49.4978 65.9222 49.4978C66.4702 49.4978 66.9533 49.2516 67.2673 48.8333C67.3432 48.7353 67.4038 48.6329 67.4601 48.5196C68.8616 45.5414 70.2631 42.5698 71.6646 39.5982C71.7101 39.4958 71.7599 39.3956 71.8076 39.2932C73.8805 34.8968 75.9514 30.5069 78.02 26.1149L83.0065 15.5443C83.3119 14.8907 83.4722 14.1827 83.4722 13.4572H79.9695H79.9652Z" fill="#01A8E2"/>
<path d="M37.5819 29.7466C22.8955 51.4215 8.88281 28.6202 8.88281 28.6202L10.0157 27.6399C14.935 32.5526 23.7598 37.8009 33.0634 26.0495L37.5797 29.7466H37.5819Z" fill="#01A8E2"/>
<path d="M28.9711 22.6988L22.1326 28.6202L15.3223 23.0474L22.1629 17.1238L28.9711 22.6988Z" fill="#01A8E2"/>
</g>
</svg>
