<svg width="66" height="66" viewBox="0 0 66 66" fill="none" xmlns="http://www.w3.org/2000/svg">
<g filter="url(#filter0_d_1207_680)">
<path d="M26.5745 28.0689C26.3334 28.3079 26.2121 28.5874 26.2106 28.9075C26.2091 29.2276 26.3279 29.5082 26.5668 29.7493L33.2575 36.5016C33.6558 36.9035 34.0954 37.0056 34.5764 36.8077C35.0574 36.6099 35.2992 36.2309 35.3018 35.6708L35.3634 22.2278C35.366 21.6677 35.1277 21.2865 34.6485 21.0842C34.1693 20.882 33.7287 20.98 33.3268 21.3783L26.5745 28.0689ZM8.92677 28.8283C8.94199 25.5076 9.58682 22.3898 10.8613 19.4749C12.1357 16.56 13.8574 14.0273 16.0261 11.8767C18.1949 9.72613 20.7433 8.02779 23.6713 6.78171C26.5993 5.53562 29.7229 4.91938 33.0421 4.93298C36.3612 4.94659 39.479 5.59143 42.3955 6.8675C45.3119 8.14356 47.8446 9.86518 49.9936 12.0324C52.1426 14.1995 53.841 16.7479 55.0887 19.6775C56.3363 22.6072 56.9526 25.7307 56.9374 29.0483C56.9222 32.3658 56.2773 35.4836 55.0029 38.4017C53.7284 41.3197 52.0068 43.8525 49.838 45.9999C47.6692 48.1472 45.1208 49.8464 42.1928 51.0973C39.2648 52.3482 36.1412 52.9636 32.8221 52.9436C29.503 52.9236 26.3852 52.2787 23.4687 51.0091C20.5522 49.7394 18.0195 48.0178 15.8705 45.8442C13.7215 43.6707 12.0224 41.1222 10.7731 38.199C9.52378 35.2758 8.90834 32.1522 8.92677 28.8283Z" fill="#1B2735"/>
</g>
<defs>
<filter id="filter0_d_1207_680" x="-0.00585938" y="0" width="65.8767" height="65.876" filterUnits="userSpaceOnUse" color-interpolation-filters="sRGB">
<feFlood flood-opacity="0" result="BackgroundImageFix"/>
<feColorMatrix in="SourceAlpha" type="matrix" values="0 0 0 0 0 0 0 0 0 0 0 0 0 0 0 0 0 0 127 0" result="hardAlpha"/>
<feOffset dy="4"/>
<feGaussianBlur stdDeviation="2"/>
<feColorMatrix type="matrix" values="0 0 0 0 0 0 0 0 0 0 0 0 0 0 0 0 0 0 0.25 0"/>
<feBlend mode="normal" in2="BackgroundImageFix" result="effect1_dropShadow_1207_680"/>
<feBlend mode="normal" in="SourceGraphic" in2="effect1_dropShadow_1207_680" result="shape"/>
</filter>
</defs>
</svg>
