<svg width="121" height="127" viewBox="0 0 121 127" fill="none" xmlns="http://www.w3.org/2000/svg">
<path d="M22.2895 57.15L57.3158 0L92.3421 57.15H22.2895ZM92.3421 127C84.3815 127 77.6162 124.223 72.0459 118.669C66.4757 113.115 63.6884 106.367 63.6842 98.4249C63.6799 90.4832 66.4672 83.7374 72.0459 78.1875C77.6247 72.6376 84.39 69.8584 92.3421 69.85C100.294 69.8415 107.062 72.6207 112.645 78.1875C118.228 83.7543 121.013 90.5001 121 98.4249C120.987 106.35 118.202 113.098 112.645 118.669C107.087 124.24 100.32 127.017 92.3421 127ZM0 123.825V73.025H50.9473V123.825H0Z" fill="#99B7DB"/>
</svg>
