<svg width="153" height="153" viewBox="0 0 153 153" fill="none" xmlns="http://www.w3.org/2000/svg">
<path d="M42.0751 15.2998C39.0317 15.2998 36.113 16.5088 33.961 18.6608C31.8091 20.8127 30.6001 23.7314 30.6001 26.7748V126.225C30.6001 129.268 31.8091 132.187 33.961 134.339C36.113 136.491 39.0317 137.7 42.0751 137.7H78.4661C73.081 131.174 69.7885 123.176 69.0184 114.75H57.3751C56.3606 114.75 55.3877 114.347 54.6704 113.629C53.9531 112.912 53.5501 111.939 53.5501 110.925C53.5501 109.91 53.9531 108.937 54.6704 108.22C55.3877 107.503 56.3606 107.1 57.3751 107.1H69.0184C69.9116 97.3011 74.2107 88.1253 81.1681 81.1678C88.1256 74.2104 97.3014 69.9113 107.1 69.0181V26.7748C107.1 23.7314 105.891 20.8127 103.739 18.6608C101.587 16.5088 98.6685 15.2998 95.6251 15.2998H42.0751ZM145.35 110.925C145.35 120.055 141.723 128.811 135.267 135.267C128.811 141.723 120.055 145.35 110.925 145.35C101.795 145.35 93.0389 141.723 86.583 135.267C80.127 128.811 76.5001 120.055 76.5001 110.925C76.5001 101.795 80.127 93.0386 86.583 86.5826C93.0389 80.1267 101.795 76.4998 110.925 76.4998C120.055 76.4998 128.811 80.1267 135.267 86.5826C141.723 93.0386 145.35 101.795 145.35 110.925ZM110.925 91.7998C109.911 91.7998 108.938 92.2028 108.22 92.9201C107.503 93.6374 107.1 94.6103 107.1 95.6248V110.925C107.1 111.939 107.503 112.912 108.22 113.629C108.938 114.347 109.911 114.75 110.925 114.75H122.4C123.415 114.75 124.387 114.347 125.105 113.629C125.822 112.912 126.225 111.939 126.225 110.925C126.225 109.91 125.822 108.937 125.105 108.22C124.387 107.503 123.415 107.1 122.4 107.1H114.75V95.6248C114.75 94.6103 114.347 93.6374 113.63 92.9201C112.912 92.2028 111.94 91.7998 110.925 91.7998Z" fill="#E68572"/>
</svg>
