<svg width="66" height="66" viewBox="0 0 66 66" fill="none" xmlns="http://www.w3.org/2000/svg">
<g filter="url(#filter0_d_1207_683)">
<path d="M39.2971 28.0689C39.5382 28.3079 39.6595 28.5874 39.661 28.9075C39.6625 29.2276 39.5437 29.5082 39.3048 29.7493L32.6141 36.5016C32.2158 36.9035 31.7762 37.0056 31.2952 36.8077C30.8141 36.6099 30.5723 36.2309 30.5698 35.6708L30.5082 22.2278C30.5056 21.6677 30.7439 21.2865 31.2231 21.0842C31.7023 20.882 32.1429 20.98 32.5448 21.3783L39.2971 28.0689ZM56.9448 28.8283C56.9296 25.5076 56.2848 22.3898 55.0103 19.4749C53.7358 16.56 52.0142 14.0273 49.8454 11.8767C47.6767 9.72613 45.1283 8.02779 42.2003 6.78171C39.2722 5.53562 36.1487 4.91938 32.8295 4.93298C29.5104 4.94659 26.3926 5.59143 23.4761 6.8675C20.5597 8.14356 18.0269 9.86518 15.8779 12.0324C13.7289 14.1995 12.0306 16.7479 10.7829 19.6775C9.53525 22.6072 8.91901 25.7307 8.93421 29.0483C8.94941 32.3658 9.59425 35.4836 10.8687 38.4017C12.1432 41.3197 13.8648 43.8525 16.0336 45.9999C18.2023 48.1472 20.7507 49.8464 23.6788 51.0973C26.6068 52.3482 29.7304 52.9636 33.0495 52.9436C36.3686 52.9236 39.4864 52.2787 42.4029 51.0091C45.3194 49.7394 47.8521 48.0178 50.0011 45.8442C52.15 43.6707 53.8492 41.1222 55.0985 38.199C56.3478 35.2758 56.9632 32.1522 56.9448 28.8283Z" fill="#1B2735"/>
</g>
<defs>
<filter id="filter0_d_1207_683" x="0.000976562" y="0" width="65.8765" height="65.876" filterUnits="userSpaceOnUse" color-interpolation-filters="sRGB">
<feFlood flood-opacity="0" result="BackgroundImageFix"/>
<feColorMatrix in="SourceAlpha" type="matrix" values="0 0 0 0 0 0 0 0 0 0 0 0 0 0 0 0 0 0 127 0" result="hardAlpha"/>
<feOffset dy="4"/>
<feGaussianBlur stdDeviation="2"/>
<feColorMatrix type="matrix" values="0 0 0 0 0 0 0 0 0 0 0 0 0 0 0 0 0 0 0.25 0"/>
<feBlend mode="normal" in2="BackgroundImageFix" result="effect1_dropShadow_1207_683"/>
<feBlend mode="normal" in="SourceGraphic" in2="effect1_dropShadow_1207_683" result="shape"/>
</filter>
</defs>
</svg>
