<svg
  width="1728"
  height="115"
  viewBox="0 0 1728 115"
  fill="none"
  xmlns="http://www.w3.org/2000/svg"
>
  <rect x="1472" y="56" width="139" height="29" rx="14.5" fill="#12C70E"></rect>
  <text
    fill="#121212"
    xml:space="preserve"
    style="white-space: pre"
    font-family="Inter"
    font-size="20"
    letter-spacing="0em"
  >
    <tspan x="1480.04" y="78.2727">Iniciar sesión</tspan>
  </text>
  <path d="M-6 0H1734V115H-6V0Z" fill="#121212"></path>
  <rect x="1625" y="49" width="31" height="29" rx="14.5" fill="#12C70E"></rect>
  <path
    d="M1632 67.1236V65.2892H1646V67.1236H1632ZM1634 63.4547V61.6203H1648V63.4547H1634ZM1636 59.7859V57.9514H1650V59.7859H1636Z"
    fill="#121212"
  ></path>
  <path
    d="M90.8878 51C92.4065 51.0037 93.1773 51.0111 93.8428 51.0285L94.1047 51.0371C94.4071 51.0471 94.7054 51.0594 95.0659 51.0743C96.5022 51.1362 97.4822 51.3442 98.3421 51.6501C99.2331 51.9646 99.9837 52.3905 100.734 53.0777C101.421 53.6965 101.952 54.4453 102.291 55.2718C102.624 56.0606 102.851 56.9595 102.918 58.2782C102.935 58.6076 102.948 58.8812 102.959 59.1598L102.967 59.4C102.987 60.0092 102.995 60.7162 102.998 62.1092L102.999 63.0329V64.655C103.003 65.5581 102.992 66.4613 102.968 67.3642L102.96 67.6044C102.949 67.883 102.936 68.1566 102.92 68.486C102.852 69.8047 102.623 70.7024 102.291 71.4924C101.952 72.3189 101.421 73.0677 100.734 73.6865C100.06 74.3164 99.2433 74.8036 98.3421 75.1142C97.4822 75.42 96.5022 75.628 95.0659 75.6899L94.1047 75.7271L93.8428 75.7345C93.1773 75.7518 92.4065 75.7605 90.8878 75.763L89.8808 75.7642H88.1137C87.1286 75.7674 86.1435 75.7579 85.1587 75.7357L84.8968 75.7283C84.5764 75.7172 84.256 75.7044 83.9357 75.6899C82.4993 75.628 81.5193 75.42 80.658 75.1142C79.7574 74.8034 78.9415 74.3162 78.2673 73.6865C77.5801 73.0678 77.0485 72.319 76.7095 71.4924C76.376 70.7036 76.1493 69.8047 76.0818 68.486L76.0413 67.6044L76.0345 67.3642C76.0096 66.4613 75.9984 65.5582 76.0008 64.655V62.1092C75.997 61.2061 76.0069 60.3029 76.0305 59.4L76.0399 59.1598C76.0507 58.8812 76.0642 58.6076 76.0804 58.2782C76.1479 56.9595 76.3747 56.0618 76.7081 55.2718C77.0479 54.4449 77.5805 53.6961 78.2687 53.0777C78.9425 52.4481 79.7579 51.9609 80.658 51.6501C81.5193 51.3442 82.498 51.1362 83.9357 51.0743C84.2947 51.0594 84.5944 51.0471 84.8968 51.0371L85.1587 51.0297C86.1431 51.0077 87.1277 50.9982 88.1124 51.0012L90.8878 51ZM89.5001 57.1911C87.71 57.1911 85.9932 57.8433 84.7274 59.0044C83.4616 60.1654 82.7504 61.7401 82.7504 63.3821C82.7504 65.0241 83.4616 66.5988 84.7274 67.7598C85.9932 68.9209 87.71 69.5732 89.5001 69.5732C91.2902 69.5732 93.007 68.9209 94.2728 67.7598C95.5386 66.5988 96.2497 65.0241 96.2497 63.3821C96.2497 61.7401 95.5386 60.1654 94.2728 59.0044C93.007 57.8433 91.2902 57.1911 89.5001 57.1911ZM89.5001 59.6675C90.0319 59.6674 90.5585 59.7634 91.0499 59.95C91.5413 60.1366 91.9878 60.4102 92.3639 60.755C92.74 61.0999 93.0384 61.5094 93.242 61.96C93.4456 62.4107 93.5505 62.8937 93.5506 63.3815C93.5506 63.8693 93.446 64.3524 93.2425 64.8031C93.0391 65.2538 92.7409 65.6633 92.3649 66.0083C91.9889 66.3533 91.5425 66.627 91.0512 66.8137C90.5599 67.0005 90.0333 67.0967 89.5014 67.0967C88.4274 67.0967 87.3973 66.7054 86.6378 66.0087C85.8783 65.3121 85.4516 64.3673 85.4516 63.3821C85.4516 62.3969 85.8783 61.4521 86.6378 60.7555C87.3973 60.0588 88.4274 59.6675 89.5014 59.6675M96.5886 55.3337C96.141 55.3337 95.7118 55.4968 95.3954 55.7871C95.0789 56.0773 94.9012 56.471 94.9012 56.8815C94.9012 57.292 95.0789 57.6857 95.3954 57.9759C95.7118 58.2662 96.141 58.4293 96.5886 58.4293C97.0361 58.4293 97.4653 58.2662 97.7818 57.9759C98.0982 57.6857 98.276 57.292 98.276 56.8815C98.276 56.471 98.0982 56.0773 97.7818 55.7871C97.4653 55.4968 97.0361 55.3337 96.5886 55.3337Z"
    fill="white"
  ></path>
  <path
    d="M161 62.4134C161 55.5612 154.952 50 147.5 50C140.048 50 134 55.5612 134 62.4134C134 68.4215 138.644 73.4242 144.8 74.5786V66.1375H142.1V62.4134H144.8V59.3101C144.8 56.9143 146.92 54.9654 149.525 54.9654H152.9V58.6894H150.2C149.458 58.6894 148.85 59.248 148.85 59.9308V62.4134H152.9V66.1375H148.85V74.7648C155.668 74.1441 161 68.856 161 62.4134Z"
    fill="white"
  ></path>
  <path
    d="M215.54 56.155C212.013 50.6875 204.791 49.0675 199.205 52.4594C193.755 55.8512 192 63.2425 195.527 68.6931L195.813 69.1319L194.632 73.5531L199.053 72.3719L199.492 72.6588C201.399 73.6881 203.475 74.2788 205.533 74.2788C207.744 74.2788 209.955 73.6881 211.862 72.5069C217.312 68.9631 218.932 61.7238 215.54 56.1212V56.155ZM212.452 67.5288C211.862 68.4062 211.119 68.9969 210.09 69.1488C209.499 69.1488 208.757 69.4356 205.82 68.2713C203.323 67.09 201.247 65.1663 199.779 62.9556C198.902 61.9263 198.446 60.5931 198.311 59.26C198.311 58.0788 198.75 57.0494 199.492 56.3069C199.779 56.02 200.083 55.8681 200.37 55.8681H201.112C201.399 55.8681 201.703 55.8681 201.855 56.4588C202.142 57.2013 202.884 58.9731 202.884 59.125C203.036 59.2769 202.968 60.4075 202.293 61.0488C201.922 61.4706 201.855 61.4875 202.007 61.7913C202.597 62.6688 203.34 63.5631 204.065 64.3056C204.943 65.0481 205.837 65.6388 206.867 66.0775C207.153 66.2294 207.457 66.2294 207.609 65.9256C207.761 65.6388 208.487 64.8963 208.79 64.5925C209.077 64.3056 209.229 64.3056 209.533 64.4406L211.895 65.6219C212.182 65.7738 212.486 65.9088 212.638 66.0606C212.79 66.4994 212.79 67.09 212.486 67.5288H212.452Z"
    fill="white"
  ></path>
  <rect x="1456" y="49" width="139" height="29" rx="14.5" fill="#12C70E"></rect>
  <text
    fill="#121212"
    xml:space="preserve"
    style="white-space: pre"
    font-family="Inter"
    font-size="16"
    letter-spacing="0em"
  >
    <tspan x="1476.34" y="69.3182">Iniciar sesión</tspan>
  </text>
  <mask
    id="mask0_476_115"
    style="mask-type: luminance"
    maskUnits="userSpaceOnUse"
    x="751"
    y="27"
    width="227"
    height="62"
  >
    <path d="M977.033 27H751V89H977.033V27Z" fill="white"></path>
  </mask>
  <g mask="url(#mask0_476_115)">
    <mask
      id="mask1_476_115"
      style="mask-type: luminance"
      maskUnits="userSpaceOnUse"
      x="751"
      y="27"
      width="227"
      height="62"
    >
      <path d="M977.03 27H751V89H977.03V27Z" fill="white"></path>
    </mask>
    <g mask="url(#mask1_476_115)">
      <path
        d="M840.288 57.266V74.9423C840.288 75.5988 839.759 76.1311 839.106 76.1311H836.226C835.573 76.1311 835.044 75.5988 835.044 74.9423V57.266C835.044 56.8909 835.348 56.5855 835.721 56.5855H839.613C839.986 56.5855 840.29 56.8909 840.29 57.266"
        fill="white"
      ></path>
      <path
        d="M840.568 51.3114C840.568 52.0792 840.286 52.727 839.722 53.2592C839.158 53.7892 838.473 54.0553 837.661 54.0553C836.85 54.0553 836.163 53.7892 835.593 53.2592C835.024 52.727 834.74 52.0792 834.74 51.3114C834.74 50.5436 835.024 49.8958 835.593 49.3636C836.161 48.8336 836.844 48.5675 837.644 48.5675C838.444 48.5675 839.158 48.8336 839.722 49.3636C840.286 49.8958 840.568 50.5458 840.568 51.3114Z"
        fill="white"
      ></path>
      <path
        d="M835.041 57.266V74.9423C835.041 75.5988 835.571 76.131 836.223 76.131H839.103C839.756 76.131 840.285 75.5988 840.285 74.9423V57.266C840.285 56.8909 839.982 56.5855 839.609 56.5855H835.716C835.343 56.5855 835.039 56.8909 835.039 57.266M839.724 49.3636C839.16 48.8336 838.468 48.5675 837.646 48.5675C836.824 48.5675 836.165 48.8336 835.594 49.3636C835.026 49.8958 834.742 50.5458 834.742 51.3114C834.742 52.077 835.026 52.727 835.594 53.2592C836.163 53.7892 836.852 54.0553 837.663 54.0553C838.475 54.0553 839.16 53.7892 839.724 53.2592C840.288 52.727 840.567 52.0792 840.567 51.3114C840.567 50.5436 840.285 49.8958 839.724 49.3636Z"
        fill="#12C70E"
      ></path>
      <path
        d="M862.502 60.8628C861.787 59.3687 860.826 58.2367 859.625 57.4623C858.421 56.6902 857.074 56.302 855.584 56.302C854.539 56.302 853.654 56.4721 852.925 56.8145C852.197 57.157 851.598 57.591 851.13 58.1145C850.661 58.6402 850.284 59.1855 850.004 59.7526H849.863V50.3582C849.863 50.0223 849.592 49.7497 849.258 49.7497H845.224C844.89 49.7497 844.617 50.0223 844.617 50.3582V75.215C844.617 75.7188 845.023 76.1267 845.524 76.1267H848.87C849.371 76.1267 849.777 75.7188 849.777 75.215V73.0294H849.987C850.258 73.5943 850.633 74.1418 851.115 74.6675C851.596 75.1931 852.203 75.6228 852.936 75.9587C853.669 76.2946 854.541 76.4626 855.55 76.4626C857.085 76.4626 858.46 76.0678 859.668 75.276C860.876 74.4864 861.83 73.3413 862.528 71.8407C863.227 70.3422 863.576 68.5187 863.576 66.3703C863.576 64.2218 863.218 62.3482 862.502 60.8563M857.705 69.4305C857.382 70.3095 856.909 70.9944 856.289 71.4851C855.667 71.9737 854.897 72.2202 853.984 72.2202C853.071 72.2202 852.344 71.9759 851.704 71.4851C851.065 70.9944 850.575 70.3138 850.234 69.4392C849.894 68.5667 849.724 67.5394 849.724 66.3594C849.724 65.1793 849.891 64.1564 850.225 63.2883C850.559 62.4223 851.047 61.7484 851.687 61.2707C852.327 60.793 853.092 60.5531 853.984 60.5531C854.875 60.5531 855.667 60.7952 856.289 61.2794C856.909 61.7636 857.382 62.442 857.705 63.3144C858.028 64.1891 858.189 65.2033 858.189 66.3594C858.189 67.5154 858.028 68.5515 857.705 69.4305Z"
        fill="#12C70E"
      ></path>
      <path
        d="M884.041 67.7226C884.481 67.7226 884.837 67.3649 884.837 66.9221V66.2547C884.837 64.6253 884.605 63.1901 884.141 61.9425C883.677 60.6992 883.026 59.6588 882.187 58.8278C881.347 57.9967 880.372 57.3664 879.257 56.9432C878.14 56.5179 876.934 56.3063 875.631 56.3063C873.74 56.3063 872.094 56.7338 870.684 57.5889C869.277 58.4439 868.184 59.6304 867.409 61.1464C866.635 62.6623 866.249 64.4312 866.249 66.4488C866.249 68.4664 866.639 70.268 867.42 71.7774C868.201 73.289 869.309 74.4581 870.747 75.2826C872.183 76.1092 873.894 76.5215 875.878 76.5215C877.403 76.5215 878.762 76.2881 879.953 75.8213C881.144 75.3546 882.137 74.7002 882.928 73.8561C883.488 73.2606 883.926 72.591 884.243 71.8516C884.449 71.3717 884.139 70.8286 883.627 70.7523L880.389 70.2833C880.064 70.2353 879.74 70.3967 879.584 70.689C879.422 70.9878 879.222 71.2539 878.986 71.483C878.628 71.832 878.194 72.0959 877.682 72.2791C877.173 72.4623 876.607 72.5539 875.984 72.5539C875.069 72.5539 874.269 72.3576 873.581 71.9606C872.894 71.5658 872.365 70.9835 871.987 70.2157C871.966 70.1721 871.946 70.1284 871.927 70.0848C871.911 70.0521 871.896 70.0194 871.883 69.9845C871.859 69.9278 871.836 69.8689 871.814 69.81C871.797 69.7642 871.779 69.7162 871.762 69.6682C871.745 69.6224 871.729 69.5723 871.714 69.5243C871.699 69.4763 871.684 69.4261 871.671 69.3759C871.53 68.8765 871.45 68.3246 871.43 67.7204H884.041V67.7226ZM871.476 64.2414C871.48 64.2022 871.484 64.1629 871.491 64.1258C871.493 64.0997 871.497 64.0735 871.502 64.0473C871.508 63.9928 871.519 63.9383 871.528 63.8859C871.534 63.8467 871.543 63.8052 871.549 63.766C871.582 63.6089 871.619 63.4562 871.662 63.3079C871.677 63.2599 871.69 63.2141 871.705 63.1661C871.736 63.0723 871.771 62.9764 871.805 62.8848C871.842 62.791 871.881 62.6972 871.925 62.6056C872.258 61.8858 872.742 61.3187 873.375 60.9064C874.009 60.4942 874.776 60.287 875.681 60.287C876.585 60.287 877.344 60.4898 877.96 60.8977C878.576 61.3056 879.042 61.8792 879.359 62.623C879.38 62.6732 879.4 62.7233 879.42 62.7735C879.433 62.804 879.443 62.8346 879.454 62.8651C879.474 62.9197 879.493 62.9742 879.511 63.0287C879.528 63.0811 879.545 63.1334 879.56 63.1879C879.576 63.2337 879.589 63.2817 879.6 63.3297C879.61 63.3712 879.621 63.4148 879.632 63.4562C879.706 63.7529 879.758 64.0648 879.793 64.3963H871.452C871.456 64.344 871.463 64.2938 871.469 64.2436"
        fill="#12C70E"
      ></path>
      <path
        d="M905.923 61.0482C905.218 59.5366 904.249 58.3697 903.011 57.543C901.772 56.7164 900.332 56.3041 898.688 56.3041C897.515 56.3041 896.552 56.4961 895.802 56.88C895.049 57.2639 894.453 57.7154 894.006 58.2345C893.562 58.7536 893.208 59.2313 892.95 59.6675H892.668V56.7164C892.668 56.6444 892.61 56.5877 892.54 56.5877H889.769C889.697 56.5877 889.641 56.6444 889.641 56.7164V83.1632C889.641 83.366 889.805 83.5318 890.007 83.5318H892.276C892.551 83.5318 892.772 83.3071 892.772 83.0323V73.1232H892.965C893.234 73.5725 893.596 74.0611 894.05 74.5933C894.501 75.1233 895.106 75.5814 895.863 75.9653C896.619 76.3492 897.567 76.5411 898.706 76.5411C900.35 76.5411 901.79 76.1245 903.028 75.2935C904.264 74.4624 905.234 73.2868 905.932 71.7709C906.63 70.255 906.979 68.462 906.979 66.3986C906.979 64.3352 906.628 62.5641 905.923 61.0526M903.149 70.1481C902.72 71.2583 902.093 72.1308 901.265 72.7699C900.439 73.4068 899.426 73.7252 898.229 73.7252C897.032 73.7252 896.051 73.4155 895.219 72.796C894.386 72.1766 893.755 71.315 893.327 70.2113C892.9 69.1077 892.685 67.8295 892.685 66.379C892.685 64.9285 892.9 63.6569 893.327 62.5728C893.757 61.4866 894.379 60.6403 895.203 60.0318C896.023 59.4232 897.034 59.12 898.231 59.12C899.428 59.12 900.458 59.4319 901.284 60.0579C902.111 60.6839 902.737 61.5411 903.16 62.6339C903.583 63.7267 903.794 64.9743 903.794 66.379C903.794 67.7837 903.579 69.04 903.152 70.1503"
        fill="white"
      ></path>
      <path
        d="M925.533 59.6762C925.064 58.7863 924.455 58.0971 923.711 57.6128C922.967 57.1286 922.171 56.7905 921.325 56.5942C920.48 56.4001 919.682 56.3019 918.931 56.3019C917.814 56.3019 916.732 56.4699 915.682 56.8058C914.633 57.1417 913.702 57.6739 912.891 58.4002C912.174 59.0437 911.616 59.8725 911.221 60.8824C911.139 61.0918 911.26 61.3252 911.477 61.3797L913.802 61.9883C913.98 62.0341 914.164 61.9447 914.238 61.7767C914.409 61.3776 914.663 60.9958 914.997 60.6316C915.414 60.1757 915.954 59.8049 916.617 59.517C917.279 59.2269 918.075 59.083 919.003 59.083C919.931 59.083 920.662 59.2335 921.273 59.5345C921.883 59.8355 922.345 60.2695 922.657 60.8366C922.967 61.4037 923.123 62.0821 923.123 62.8717V62.996C923.123 63.4802 922.95 63.8183 922.605 64.0146C922.258 64.2087 921.724 64.3483 921.002 64.4312C920.28 64.5141 919.326 64.6319 918.142 64.7867C917.227 64.9045 916.32 65.0637 915.422 65.2644C914.524 65.4651 913.709 65.7683 912.976 66.1761C912.243 66.584 911.655 67.1359 911.215 67.8317C910.775 68.5275 910.556 69.437 910.556 70.5581C910.556 71.845 910.851 72.9378 911.445 73.8343C912.037 74.7307 912.835 75.4113 913.839 75.8693C914.843 76.3295 915.967 76.5607 917.211 76.5607C918.326 76.5607 919.269 76.3993 920.046 76.0721C920.82 75.7472 921.447 75.3436 921.928 74.8594C922.41 74.3752 922.761 73.9041 922.984 73.4438H923.16V75.5334C923.16 75.8649 923.427 76.1332 923.757 76.1332H925.643C925.973 76.1332 926.24 75.8649 926.24 75.5334V63.1203C926.24 61.7156 926.005 60.5683 925.535 59.6762M923.119 68.9964C923.119 69.7991 922.913 70.5669 922.503 71.2976C922.093 72.0304 921.488 72.6237 920.69 73.0774C919.892 73.5311 918.901 73.7579 917.715 73.7579C916.927 73.7579 916.235 73.6423 915.637 73.4133C915.038 73.1843 914.566 72.8418 914.221 72.386C913.874 71.9323 913.7 71.3739 913.7 70.713C913.7 69.9692 913.9 69.3803 914.299 68.9441C914.698 68.5078 915.225 68.1741 915.882 67.9429C916.539 67.7117 917.244 67.5503 917.994 67.4565C918.359 67.4085 918.801 67.354 919.324 67.2885C919.846 67.2231 920.373 67.1446 920.907 67.0486C921.44 66.9548 921.911 66.8479 922.314 66.7302C922.72 66.6124 922.984 66.4837 923.115 66.3419V68.9964H923.119Z"
        fill="white"
      ></path>
      <path
        d="M944.534 67.306C943.684 66.427 942.366 65.7748 940.583 65.3495L937.607 64.6406C936.517 64.381 935.708 64.032 935.178 63.5958C934.649 63.1596 934.387 62.575 934.387 61.8443C934.387 61.0177 934.764 60.3328 935.521 59.7897C936.278 59.2465 937.243 58.9761 938.416 58.9761C939.661 58.9761 940.609 59.2749 941.259 59.8704C941.771 60.3393 942.149 60.8606 942.387 61.4364C942.502 61.7091 942.784 61.8683 943.073 61.8094L944.777 61.4626C945.137 61.3885 945.35 61.0133 945.23 60.6621C944.985 59.9423 944.636 59.2923 944.181 58.7122C943.589 57.9575 942.81 57.3664 941.849 56.941C940.886 56.5157 939.737 56.3041 938.399 56.3041C937.061 56.3041 935.781 56.5462 934.704 57.0305C933.623 57.5147 932.776 58.1843 932.16 59.0393C931.544 59.8943 931.236 60.8824 931.236 62.0035C931.236 63.3842 931.669 64.5206 932.539 65.4127C933.407 66.3048 934.727 66.957 936.499 67.3692L939.72 68.1479C940.659 68.3595 941.372 68.691 941.858 69.1382C942.344 69.5875 942.587 70.1546 942.587 70.8395C942.587 71.6531 942.186 72.3532 941.381 72.9378C940.576 73.5224 939.501 73.8146 938.152 73.8146C936.944 73.8146 935.953 73.5529 935.185 73.0272C934.56 72.6019 934.109 71.9868 933.83 71.1841C933.712 70.8482 933.368 70.6476 933.018 70.7152L931.401 71.0205C930.986 71.0991 930.726 71.5178 930.839 71.9279C931.077 72.7764 931.461 73.5114 931.988 74.1353C932.669 74.9379 933.537 75.5421 934.595 75.95C935.651 76.3579 936.848 76.5607 938.186 76.5607C939.687 76.5607 941.012 76.3099 942.155 75.8082C943.3 75.3066 944.194 74.6129 944.84 73.7296C945.486 72.844 945.807 71.8232 945.807 70.6672C945.807 69.3105 945.382 68.1916 944.532 67.3125"
        fill="white"
      ></path>
      <path
        d="M963.499 67.7248C963.389 67.5808 963.269 67.4412 963.139 67.3082C962.287 66.4292 960.971 65.777 959.186 65.3517L956.212 64.6428C955.781 64.5403 955.395 64.4247 955.052 64.2938C954.525 64.0953 954.102 63.8619 953.783 63.598C953.254 63.1618 952.992 62.5772 952.992 61.8465C952.992 61.0198 953.369 60.335 954.128 59.7918C954.885 59.2487 955.85 58.9783 957.023 58.9783C958.266 58.9783 959.214 59.2771 959.867 59.8725C960.437 60.3938 960.838 60.9806 961.07 61.6349C961.129 61.7963 961.291 61.8923 961.458 61.8574L962.432 61.6589L963.675 61.4059C963.87 61.3667 963.989 61.1682 963.935 60.9762C963.766 60.3895 963.53 59.8464 963.226 59.3469C963.092 59.1266 962.946 58.915 962.788 58.7143C962.196 57.9596 961.417 57.3685 960.457 56.9454C959.494 56.5201 958.344 56.3085 957.006 56.3085C955.668 56.3085 954.389 56.5506 953.311 57.0348C952.231 57.519 951.383 58.1887 950.767 59.0437C950.151 59.8987 949.843 60.8868 949.843 62.0079C949.843 63.3886 950.277 64.525 951.146 65.4149C951.339 65.6112 951.552 65.7966 951.788 65.9711C952.088 66.1914 952.424 66.3943 952.795 66.5753C953.454 66.9003 954.224 67.1664 955.109 67.3714L957.973 68.065L958.329 68.1501C959.268 68.3617 959.982 68.6932 960.467 69.1404C960.927 69.5635 961.168 70.0914 961.196 70.7217C961.196 70.761 961.198 70.8002 961.198 70.8395C961.198 71.6531 960.797 72.3532 959.992 72.9378C959.188 73.5224 958.112 73.8146 956.763 73.8146C955.555 73.8146 954.566 73.5529 953.799 73.0272C953.148 72.5823 952.684 71.9323 952.409 71.0773C952.32 70.8046 952.046 70.6367 951.767 70.689L949.852 71.0511C949.533 71.1122 949.327 71.4284 949.407 71.7447C949.639 72.6717 950.038 73.4656 950.604 74.1331C951.285 74.9358 952.153 75.5399 953.209 75.9478C954.265 76.3557 955.462 76.5586 956.8 76.5586C958.303 76.5586 959.626 76.3077 960.769 75.806C961.914 75.3044 962.807 74.6108 963.454 73.7274C964.1 72.8418 964.423 71.821 964.423 70.665C964.423 69.509 964.117 68.5362 963.506 67.727"
        fill="white"
      ></path>
      <path
        d="M969.887 73.5965V74.9532H969.141V71.4153H970.166C970.644 71.4153 970.999 71.5026 971.227 71.6771C971.457 71.8516 971.572 72.1177 971.572 72.4754C971.572 72.6826 971.515 72.868 971.4 73.0316C971.285 73.193 971.125 73.3217 970.917 73.4133C971.446 74.2094 971.791 74.722 971.951 74.9554H971.123L970.284 73.5987H969.887V73.5965ZM969.887 72.9858H970.127C970.364 72.9858 970.537 72.9465 970.65 72.868C970.763 72.7895 970.819 72.6652 970.819 72.495C970.819 72.3249 970.763 72.2071 970.648 72.1373C970.533 72.0675 970.355 72.0304 970.114 72.0304H969.889V72.9858H969.887Z"
        fill="white"
      ></path>
      <path
        d="M970.429 76.3186C969.596 76.3186 968.813 75.9936 968.226 75.4003C967.638 74.8093 967.312 74.0218 967.312 73.1843C967.312 72.3467 967.636 71.5615 968.226 70.9682C968.813 70.3771 969.596 70.0499 970.429 70.0499C971.262 70.0499 972.042 70.3749 972.632 70.9682C973.22 71.5593 973.545 72.3467 973.545 73.1843C973.545 74.0218 973.222 74.8071 972.632 75.4003C972.045 75.9914 971.262 76.3186 970.429 76.3186ZM970.429 70.5211C968.967 70.5211 967.781 71.7163 967.781 73.1843C967.781 74.6522 968.969 75.8475 970.429 75.8475C971.888 75.8475 973.077 74.6522 973.077 73.1843C973.077 71.7163 971.888 70.5211 970.429 70.5211Z"
        fill="white"
      ></path>
      <path
        d="M831.058 40.4731C830.414 40.4731 829.798 40.6607 829.276 40.9988C828.753 41.3325 828.328 41.8168 828.057 42.4078C827.771 43.0295 827.484 43.6577 827.194 44.2946C826.19 46.4779 825.157 48.7333 824.142 50.9428C821.963 55.6869 819.907 60.1714 818.319 63.6482L818.191 63.9339C818.042 64.2633 817.886 64.6035 817.712 64.9852C817.669 65.0768 817.628 65.1706 817.584 65.271L817.137 66.2503C817.109 66.3201 817.053 66.3637 816.992 66.3855C816.931 66.3637 816.875 66.3201 816.845 66.2503L816.4 65.271C816.357 65.1706 816.313 65.0768 816.272 64.9852C816.096 64.6035 815.942 64.2633 815.791 63.9339L815.663 63.6482C814.075 60.1714 812.019 55.6869 809.84 50.9428C808.827 48.7333 807.793 46.4779 806.788 44.2946C806.5 43.6577 806.212 43.0295 805.925 42.4078C805.656 41.8168 805.229 41.3347 804.706 40.9988C804.184 40.6607 803.572 40.4731 802.924 40.4731H799.417C799.417 41.1973 799.577 41.9084 799.883 42.5627L804.876 53.1458C806.949 57.543 809.022 61.9403 811.095 66.3397C811.143 66.4423 811.191 66.5426 811.239 66.6451C812.642 69.6202 814.045 72.5954 815.448 75.577C815.515 75.7188 815.6 75.8497 815.7 75.9609C815.732 75.998 815.767 76.0373 815.802 76.0722C816.112 76.3797 816.53 76.5564 816.999 76.5564C817.547 76.5564 818.031 76.3099 818.345 75.8911C818.421 75.793 818.482 75.6905 818.538 75.577C819.942 72.5954 821.345 69.6202 822.748 66.6451C822.793 66.5426 822.843 66.4423 822.891 66.3397C824.966 61.9381 827.04 57.543 829.111 53.1458L834.103 42.5627C834.409 41.9084 834.569 41.1995 834.569 40.4731H831.063H831.058Z"
        fill="#12C70E"
      ></path>
      <path
        d="M794.565 56.5855C794.565 67.8644 785.474 77.0079 774.26 77.0079C763.045 77.0079 753.954 67.8644 753.954 56.5855C753.954 45.3066 763.045 36.1631 774.26 36.1631C785.474 36.1631 794.565 45.3066 794.565 56.5855Z"
        fill="black"
      ></path>
      <path
        d="M788.625 56.7818C773.921 78.4824 759.892 55.6541 759.892 55.6541L761.026 54.6726C765.951 59.5912 774.786 64.8456 784.101 53.0804L788.623 56.7818H788.625Z"
        fill="#12C70E"
      ></path>
      <path
        d="M780.005 49.7257L773.158 55.6541L766.34 50.0747L773.189 44.1441L780.005 49.7257Z"
        fill="#12C70E"
      ></path>
    </g>
  </g>
</svg>
