<svg
  width="17"
  height="17"
  viewBox="0 0 17 17"
  fill="none"
  xmlns="http://www.w3.org/2000/svg"
>
  <mask
    id="mask0_430_46"
    style="mask-type: luminance"
    maskUnits="userSpaceOnUse"
    x="0"
    y="0"
    width="17"
    height="17"
  >
    <path
      d="M8.50033 15.5834C12.4125 15.5834 15.5837 12.4121 15.5837 8.50002C15.5837 4.5879 12.4125 1.41669 8.50033 1.41669C4.5882 1.41669 1.41699 4.5879 1.41699 8.50002C1.41699 12.4121 4.5882 15.5834 8.50033 15.5834Z"
      fill="white"
      stroke="white"
      stroke-width="2"
      stroke-linejoin="round"
    />
    <path
      d="M8.5 6.375C8.78179 6.375 9.05204 6.26306 9.2513 6.0638C9.45056 5.86454 9.5625 5.59429 9.5625 5.3125C9.5625 5.03071 9.45056 4.76046 9.2513 4.5612C9.05204 4.36194 8.78179 4.25 8.5 4.25C8.21821 4.25 7.94796 4.36194 7.7487 4.5612C7.54944 4.76046 7.4375 5.03071 7.4375 5.3125C7.4375 5.59429 7.54944 5.86454 7.7487 6.0638C7.94796 6.26306 8.21821 6.375 8.5 6.375ZM8.5 12.75C8.78179 12.75 9.05204 12.6381 9.2513 12.4388C9.45056 12.2395 9.5625 11.9693 9.5625 11.6875C9.5625 11.4057 9.45056 11.1355 9.2513 10.9362C9.05204 10.7369 8.78179 10.625 8.5 10.625C8.21821 10.625 7.94796 10.7369 7.7487 10.9362C7.54944 11.1355 7.4375 11.4057 7.4375 11.6875C7.4375 11.9693 7.54944 12.2395 7.7487 12.4388C7.94796 12.6381 8.21821 12.75 8.5 12.75ZM5.3125 9.5625C5.59429 9.5625 5.86454 9.45056 6.0638 9.2513C6.26306 9.05204 6.375 8.78179 6.375 8.5C6.375 8.21821 6.26306 7.94796 6.0638 7.7487C5.86454 7.54944 5.59429 7.4375 5.3125 7.4375C5.03071 7.4375 4.76046 7.54944 4.5612 7.7487C4.36194 7.94796 4.25 8.21821 4.25 8.5C4.25 8.78179 4.36194 9.05204 4.5612 9.2513C4.76046 9.45056 5.03071 9.5625 5.3125 9.5625ZM11.6875 9.5625C11.9693 9.5625 12.2395 9.45056 12.4388 9.2513C12.6381 9.05204 12.75 8.78179 12.75 8.5C12.75 8.21821 12.6381 7.94796 12.4388 7.7487C12.2395 7.54944 11.9693 7.4375 11.6875 7.4375C11.4057 7.4375 11.1355 7.54944 10.9362 7.7487C10.7369 7.94796 10.625 8.21821 10.625 8.5C10.625 8.78179 10.7369 9.05204 10.9362 9.2513C11.1355 9.45056 11.4057 9.5625 11.6875 9.5625Z"
      fill="black"
      stroke="black"
      stroke-width="2"
      stroke-linejoin="round"
    />
    <path
      d="M8.5 15.5834H15.5833"
      stroke="white"
      stroke-width="2"
      stroke-linecap="round"
    />
  </mask>
  <g mask="url(#mask0_430_46)">
    <path d="M0 0H17V17H0V0Z" fill="black" />
  </g>
</svg>
