<svg
  width="28"
  height="29"
  viewBox="0 0 28 29"
  fill="none"
  xmlns="http://www.w3.org/2000/svg"
>
  <path
    d="M7.58333 13.3333L14 2.83325L20.4167 13.3333H7.58333ZM20.4167 26.1666C18.9583 26.1666 17.7189 25.6564 16.6985 24.6359C15.6781 23.6155 15.1674 22.3757 15.1667 20.9166C15.1659 19.4575 15.6765 18.2181 16.6985 17.1984C17.7205 16.1788 18.9599 15.6681 20.4167 15.6666C21.8734 15.665 23.1132 16.1756 24.136 17.1984C25.1588 18.2212 25.669 19.4606 25.6667 20.9166C25.6643 22.3726 25.1541 23.6124 24.136 24.6359C23.1179 25.6595 21.8781 26.1697 20.4167 26.1666ZM3.5 25.5833V16.2499H12.8333V25.5833H3.5Z"
    fill="#EF4138"
  ></path>
</svg>
