<svg
  width="21"
  height="21"
  viewBox="0 0 21 21"
  fill="none"
  xmlns="http://www.w3.org/2000/svg"
>
  <path
    d="M7.10164 4.3125C6.74989 4.9215 6.74989 5.73875 6.74989 7.375V10.0236C7.12614 10 7.54964 10 8.00552 10H14.2443C14.6993 10 15.1236 10 15.4999 10.0236V7.375C15.4999 5.73875 15.4999 4.9215 15.1481 4.3125C14.9178 3.91348 14.5864 3.58213 14.1874 3.35175C13.5784 3 12.7611 3 11.1249 3C9.48864 3 8.67139 3 8.06239 3.35175C7.66337 3.58213 7.33202 3.91348 7.10164 4.3125ZM6.09364 14.3671C5.65439 14.3496 5.38839 14.2901 5.20639 14.0915C4.94652 13.808 4.98064 13.4143 5.04889 12.6259C5.09702 12.0571 5.20726 11.6739 5.45751 11.3878C5.90551 10.875 6.62564 10.875 8.06677 10.875H14.183C15.6241 10.875 16.3443 10.875 16.7923 11.3878C17.0425 11.673 17.1528 12.0563 17.2018 12.6259C17.2691 13.4134 17.3033 13.808 17.0434 14.0915C16.8614 14.2901 16.5954 14.3496 16.1561 14.3671V18.75C16.1561 18.924 16.087 19.091 15.9639 19.214C15.8409 19.3371 15.6739 19.4062 15.4999 19.4062C15.3258 19.4062 15.1589 19.3371 15.0359 19.214C14.9128 19.091 14.8436 18.924 14.8436 18.75V14.375H7.40614V18.75C7.40614 18.924 7.337 19.091 7.21393 19.214C7.09086 19.3371 6.92394 19.4062 6.74989 19.4062C6.57584 19.4062 6.40892 19.3371 6.28585 19.214C6.16278 19.091 6.09364 18.924 6.09364 18.75V14.3671Z"
    fill="black"
  ></path>
</svg>
