<svg
  width="22"
  height="22"
  viewBox="0 0 22 22"
  fill="none"
  xmlns="http://www.w3.org/2000/svg"
>
  <path
    d="M8.30533 1.76914C6.57283 1.75997 4.88616 3.42831 5.65616 5.49998H2.75033C2.2641 5.49998 1.79778 5.69313 1.45396 6.03695C1.11015 6.38076 0.916992 6.84708 0.916992 7.33331V9.16664C0.916992 9.40976 1.01357 9.64291 1.18548 9.81482C1.35739 9.98673 1.59054 10.0833 1.83366 10.0833H10.0837V7.33331H11.917V10.0833H20.167C20.4101 10.0833 20.6433 9.98673 20.8152 9.81482C20.9871 9.64291 21.0837 9.40976 21.0837 9.16664V7.33331C21.0837 6.84708 20.8905 6.38076 20.5467 6.03695C20.2029 5.69313 19.7366 5.49998 19.2503 5.49998H16.3445C17.417 2.50248 13.3837 0.384975 11.5228 2.96997L11.0003 3.66664L10.4778 2.95164C9.90033 2.13581 9.10283 1.77831 8.30533 1.76914ZM8.25033 3.66664C9.06616 3.66664 9.47866 4.65664 8.90116 5.23414C8.32366 5.81164 7.33366 5.39914 7.33366 4.58331C7.33366 4.34019 7.43024 4.10704 7.60215 3.93513C7.77405 3.76322 8.00721 3.66664 8.25033 3.66664ZM13.7503 3.66664C14.5662 3.66664 14.9787 4.65664 14.4012 5.23414C13.8237 5.81164 12.8337 5.39914 12.8337 4.58331C12.8337 4.34019 12.9302 4.10704 13.1021 3.93513C13.2741 3.76322 13.5072 3.66664 13.7503 3.66664ZM1.83366 11V18.3333C1.83366 18.8195 2.02681 19.2859 2.37063 19.6297C2.71445 19.9735 3.18076 20.1666 3.66699 20.1666H18.3337C18.8199 20.1666 19.2862 19.9735 19.63 19.6297C19.9738 19.2859 20.167 18.8195 20.167 18.3333V11H11.917V18.3333H10.0837V11H1.83366Z"
    fill="black"
  ></path>
</svg>
